<?xml version="1.0" standalone="no"?>
<!DOCTYPE svg PUBLIC "-//W3C//DTD SVG 1.1//EN" "http://www.w3.org/Graphics/SVG/1.1/DTD/svg11.dtd" >
<svg>
<metadata>
Created by FontForge 20110222 at Mon Mar  7 12:48:59 2011
 By www-data
(c) Graham Meade. All rights reserved. gem@c031.aone.net.au
</metadata>
<defs>
<font id="StreetSlab" horiz-adv-x="1511" >
  <font-face 
    font-family="Street Slab"
    font-weight="400"
    font-stretch="normal"
    units-per-em="2048"
    panose-1="2 0 4 0 0 0 0 0 0 0"
    ascent="1638"
    descent="-410"
    x-height="1062"
    cap-height="1479"
    bbox="-160 -435 2225 1880"
    underline-thickness="150"
    underline-position="-142"
    unicode-range="U+0020-2122"
  />
    <missing-glyph />
    <glyph glyph-name="space" unicode=" " horiz-adv-x="754" 
 />
    <glyph glyph-name="space" unicode="&#xa0;" horiz-adv-x="754" 
 />
    <glyph glyph-name="exclam" unicode="!" horiz-adv-x="352" 
d="M292 1419q-59 -474 -59 -924q0 -74 3 -131q-4 -31 -60 -31q-52 0 -56 31q1 58 1 118q0 427 -61 932q-5 40 40 63q35 18 79 18q109 0 113 -76zM281 99q0 -127 -105 -127q-104 0 -104 127q0 44 30 75t74 31t74.5 -31t30.5 -75z" />
    <glyph glyph-name="quotedbl" unicode="&#x22;" horiz-adv-x="665" 
d="M605 1426l-38 -185q-22 -107 -22 -200q0 -40 5 -74q-4 -27 -59 -27q-43 0 -51 27q2 200 -50 459q49 40 109 40q57 0 106 -40zM275 1426l-38 -185q-22 -107 -22 -200q0 -40 5 -74q-4 -27 -59 -27q-43 0 -51 27q2 200 -50 459q49 40 109 40q57 0 106 -40z" />
    <glyph glyph-name="numbersign" unicode="#" horiz-adv-x="1260" 
d="M1200 982q0 -71 -70 -71h-204l-54 -256h217q34 0 57.5 -25.5t23.5 -59.5q0 -74 -81 -74h-249l-52 -217q-20 -49 -99 -49q-63 0 -63 38q0 5 2 11l51 217h-222l-52 -217q-20 -53 -87 -53q-75 0 -75 43q0 5 2 10l52 217h-168q-69 0 -69 84q0 75 69 75h200l53 256h-212
q-77 0 -77 71q0 34 22 61t55 27h244l38 212q16 53 78 53q25 0 51 -11q32 -13 32 -34q0 -5 -1 -8l-38 -212h223l38 212q11 62 88 62q75 0 75 -49q0 -6 -2 -13l-38 -212h172q32 0 52 -29q18 -25 18 -59zM765 911h-223l-53 -256h222z" />
    <glyph glyph-name="dollar" unicode="$" horiz-adv-x="1041" 
d="M195 101q-17 -25 -66 -25q-63 0 -63 59v203q-4 19 -6 43q-2 18 6 31v113q0 47 65 47q73 0 73 -47v-117q2 -5 3 -12q21 -158 206 -221l-3 301q-1 66 82 66q85 0 99 -69l3 -317q144 16 205 119q32 54 32 122q0 137 -137 203q-48 23 -221 72q-143 41 -215 87
q-166 107 -166 313q0 246 197 346q57 29 122 41l-1 107q-1 66 82 66q85 0 99 -69l1 -102q119 -16 200 -80v7q0 47 65 47q73 0 73 -47v-390q0 -59 -75 -59q-63 0 -63 59v64q-6 7 -8 18q-34 183 -190 213l2 -211q-7 -68 -90 -68q-90 0 -91 71l-2 204q-44 -11 -79 -32
q-93 -55 -93 -173q0 -109 101 -167q42 -24 180 -62q186 -51 259 -92q200 -112 200 -350q0 -117 -53 -215q-55 -103 -154 -158q-81 -45 -179 -54l1 -124q-7 -68 -90 -68q-90 0 -91 71l-1 130q-133 26 -219 106z" />
    <glyph glyph-name="percent" unicode="%" horiz-adv-x="1696" 
d="M1636 333q0 -163 -76 -268q-85 -119 -242 -119q-159 0 -240 125q-70 106 -70 273q0 159 73 261q82 116 236 116q161 0 245 -118q74 -103 74 -270zM1479 340q0 257 -157 257t-157 -271q0 -256 156 -256q158 0 158 270zM1383 1082q0 -30 -19 -52l-919 -725q-17 -11 -37 -11
q-40 0 -69 32t-29 73q0 30 26 51l919 725q15 12 37 12q37 0 64 -33.5t27 -71.5zM687 1103q0 -162 -76 -267q-85 -120 -241 -120q-160 0 -241 125q-69 105 -69 273q0 157 74 260q83 117 234 117q161 0 245 -118q74 -103 74 -270zM530 1110q0 257 -157 257q-156 0 -156 -271
q0 -256 156 -256q157 0 157 270z" />
    <glyph glyph-name="ampersand" unicode="&#x26;" horiz-adv-x="1362" 
d="M1302 76q0 -39 -32.5 -78.5t-70.5 -39.5q-19 0 -123 97q-14 13 -126 119q-179 -199 -426 -199q-196 0 -327 115q-137 121 -137 314q0 147 136 286q109 111 270 188q-105 12 -166 98q-56 78 -56 188q0 147 111 239q104 88 253 88q147 0 242 -82q99 -86 99 -231
q0 -186 -180 -294l-335 -200q-180 -108 -180 -269q0 -118 77.5 -199.5t194.5 -81.5q201 0 319 190q63 102 111 280l-111 57q-28 14 -28 48q0 26 20 66q28 55 62 55q13 0 29 -8l350 -178q22 -11 22 -38q0 -25 -18 -60q-35 -68 -69 -68q-9 0 -17 4l-61 31l-6 -19
q-36 -113 -67 -160l135 -129q105 -100 105 -129zM765 1173q0 75 -45.5 122.5t-120.5 47.5t-122.5 -44t-47.5 -118q0 -200 166 -200q21 0 45 4q76 55 87 67q38 44 38 121z" />
    <glyph glyph-name="quotesingle" unicode="'" horiz-adv-x="335" 
d="M275 1426l-38 -185q-22 -107 -22 -200q0 -40 5 -74q-4 -27 -59 -27q-43 0 -51 27q2 200 -50 459q49 40 109 40q57 0 106 -40z" />
    <glyph glyph-name="parenleft" unicode="(" horiz-adv-x="612" 
d="M552 -393q0 -18 -31 -31q-26 -11 -47 -11q-54 0 -93 49q-321 407 -321 917q0 532 305 919q45 57 108 57q66 0 66 -41q0 -7 -5 -16q-154 -264 -216 -438q-83 -231 -83 -482q0 -240 90 -480q72 -192 225 -436q2 -3 2 -7z" />
    <glyph glyph-name="parenright" unicode=")" horiz-adv-x="612" 
d="M552 531q0 -510 -321 -917q-39 -49 -92 -49q-79 0 -79 42q0 4 2 7q153 245 225 436q90 239 90 480q0 253 -82 482q-62 174 -217 438q-5 9 -5 16q0 41 66 41q63 0 108 -57q305 -387 305 -919z" />
    <glyph glyph-name="asterisk" unicode="*" horiz-adv-x="724" 
d="M664 1062q0 -86 -77 -118q-102 98 -191 162q4 -55 41 -257q-34 -30 -74 -30q-42 0 -76 30q26 146 33 262q-42 -31 -183 -167q-77 32 -77 119q0 11 1 23q123 46 215 95q-92 49 -215 94q-1 12 -1 24q0 87 77 119l99 -96q47 -46 84 -71q-7 116 -33 261q34 31 76 31
q40 0 74 -31l-26 -141q-12 -65 -15 -115q89 64 191 162q77 -32 77 -118q0 -12 -1 -25l-126 -45q-56 -20 -107 -49q47 -27 233 -95q1 -12 1 -24z" />
    <glyph glyph-name="plus" unicode="+" horiz-adv-x="1120" 
d="M1060 720q0 -81 -42 -81h-369v-372q0 -47 -83 -47q-87 0 -87 47v372h-369q-50 0 -50 76q0 92 50 92h369v369q0 50 86 50q84 0 84 -50v-369h369q42 0 42 -87z" />
    <glyph glyph-name="comma" unicode="," horiz-adv-x="349" 
d="M289 99q-1 -3 -2 -19l-6 -80q-10 -129 -40 -183q-39 -69 -127 -107q-54 6 -54 52q0 11 4 25q105 46 113 200q-45 1 -76 34t-31 78q0 46 32 78.5t78 32.5t77.5 -32.5t31.5 -78.5z" />
    <glyph glyph-name="hyphen" unicode="-" horiz-adv-x="850" 
d="M790 728q0 -88 -59 -88h-623q-48 0 -48 85q0 96 48 96h623q59 0 59 -93z" />
    <glyph glyph-name="hyphen" unicode="&#x2010;" horiz-adv-x="850" 
d="M790 728q0 -88 -59 -88h-623q-48 0 -48 85q0 96 48 96h623q59 0 59 -93z" />
    <glyph glyph-name="period" unicode="." horiz-adv-x="339" 
d="M279 99q0 -46 -31.5 -79t-77.5 -33q-47 0 -78.5 32.5t-31.5 79.5q0 46 32 78.5t78 32.5t77.5 -32.5t31.5 -78.5z" />
    <glyph glyph-name="slash" unicode="/" horiz-adv-x="817" 
d="M757 1498q0 -4 -1 -7l-540 -1516q-17 -37 -84 -37q-72 0 -72 30q0 4 1 7l541 1516q16 46 81 46q74 0 74 -39z" />
    <glyph glyph-name="zero" unicode="0" horiz-adv-x="1076" 
d="M1016 723q0 -488 -211 -661q-106 -87 -267 -87q-478 0 -478 748q0 490 213 663q106 86 265 86q478 0 478 -749zM803 1057q-61 266 -267 266q-125 0 -198 -105q-93 -133 -93 -495q0 -60 2 -114zM831 723q0 65 -3 122l-556 -448q60 -274 266 -274q293 0 293 600z" />
    <glyph glyph-name="one" unicode="1" horiz-adv-x="666" 
d="M606 61q0 -83 -60 -83h-393q-48 0 -48 85q0 96 48 96h124v1020l-88 -81q-11 -10 -24 -10q-37 0 -71 41.5t-34 79.5q0 16 10 25l207 180q71 62 113 62t67 -54v-1263h89q60 0 60 -98z" />
    <glyph glyph-name="two" unicode="2" horiz-adv-x="1091" 
d="M942 0zM1031 60q0 -60 -89 -60h-882l666 839q3 6 11 14q83 117 83 216q0 115 -82 186q-77 68 -194 68q-122 0 -202 -70q-84 -73 -84 -193v-24q0 -60 -98 -60q-50 0 -70 22q-21 17 -18 50q2 24 5 44v337q0 51 79 51q102 0 102 -51v-32q115 75 290 75q200 0 323 -102
q134 -109 134 -305q0 -179 -155 -352q-2 -2 -10 -8l-421 -532h431v90q0 48 85 48q96 0 96 -48v-203z" />
    <glyph glyph-name="three" unicode="3" horiz-adv-x="1070" 
d="M244 51q-7 -51 -97 -51q-83 0 -83 60v222q-4 13 -4 20q0 11 4 22v129q0 48 85 48q96 0 96 -48v-103q70 -227 272 -227q135 0 218.5 85.5t83.5 220.5q0 133 -84 212q-80 76 -215 79q-42 1 -85 25q-51 29 -51 67q0 39 70 38q125 -1 207 58q92 66 92 187q0 105 -67 167
t-173 62q-182 0 -244 -171v-131q0 -60 -98 -60q-83 0 -83 60v393q0 48 85 48q96 0 96 -48v-3q100 60 240 60q115 0 214 -48q106 -51 162 -144q53 -88 53 -189q0 -263 -201 -291q89 -10 135 -48q15 -12 69 -86q69 -94 69 -233q0 -209 -144 -337q-138 -122 -350 -122
q-156 0 -272 77z" />
    <glyph glyph-name="four" unicode="4" horiz-adv-x="1229" 
d="M1169 432q0 -81 -49 -81h-228v-311q0 -65 -91 -65q-89 0 -89 65v311h-606q-46 0 -46 46q0 47 46 119l438 897q32 49 110 49q83 0 83 -38q0 -6 -5 -13l-439 -895h419v363q0 56 90 56q91 0 91 -56l-1 -363h228q49 0 49 -84z" />
    <glyph glyph-name="five" unicode="5" horiz-adv-x="1057" 
d="M241 31q-6 -53 -98 -53q-83 0 -83 60v363q0 48 85 48q96 0 96 -48l1 -117q24 -52 51 -81q75 -80 195 -80q144 0 230 110q80 101 80 248q0 148 -82 238q-85 94 -231 94q-209 0 -267 -142q-34 -38 -66 -38q-44 -1 -66 60q-16 44 -16 97q0 28 3 51l78 605h727q11 1 23 1
q96 0 96 -48v-233q0 -57 -101 -57q-80 0 -80 57v108h-511l-49 -394q132 92 277 92q207 0 333 -135q123 -132 123 -340q0 -198 -116 -344q-142 -178 -385 -178q-142 0 -247 56z" />
    <glyph glyph-name="six" unicode="6" horiz-adv-x="1081" 
d="M1021 468q0 -135 -55 -249q-59 -123 -168 -189q-104 -63 -236 -63q-295 0 -417 217q-85 152 -85 346q0 77 17 146l-2 2q50 193 88 258l298 515q22 30 59 30q38 0 71.5 -27t33.5 -64q0 -16 -9 -32l-277 -489q103 74 249 74q200 0 320 -140q113 -132 113 -335zM837 457
q0 141 -71 230q-76 97 -214 97q-134 0 -215 -93q-77 -88 -77 -224q0 -213 150 -307q72 -45 149 -45q134 0 210 108q68 95 68 234z" />
    <glyph glyph-name="seven" unicode="7" horiz-adv-x="1147" 
d="M689 50q0 -83 -60 -83h-393q-48 0 -48 85q0 96 48 96h96l502 1126h-593v-107q0 -57 -101 -57q-80 0 -80 57v233q0 32 38 43q9 4 21 4h3q11 1 23 1h13q9 -1 13 -1h867q49 0 49 -29q0 -35 -48 -144h-1l-508 -1126h99q60 0 60 -98z" />
    <glyph glyph-name="eight" unicode="8" horiz-adv-x="1086" 
d="M1026 419q0 -208 -139 -329q-133 -115 -344 -115q-212 0 -345 117q-138 122 -138 332q0 122 53 235q66 140 175 140q-90 0 -135 109q-34 82 -34 186q0 174 126 279q117 99 295 99q179 0 298 -101q128 -107 128 -282q0 -101 -39 -183q-49 -103 -137 -111q115 -16 181 -142
q55 -105 55 -234zM781 1090q0 104 -67 169t-172 65q-100 0 -168 -62q-71 -63 -71 -162q0 -109 66 -177.5t175 -68.5q104 0 170.5 66t66.5 170zM842 417q0 138 -84 229.5t-221 91.5q-131 0 -211.5 -91.5t-80.5 -223.5q0 -136 82 -218t218 -82q133 0 215 80.5t82 213.5z" />
    <glyph glyph-name="nine" unicode="9" horiz-adv-x="1081" 
d="M1021 918q0 -78 -17 -146l2 -2q-50 -193 -88 -259l-298 -515q-22 -29 -59 -29q-38 0 -71.5 27t-33.5 64q0 16 9 32l277 489q-103 -74 -249 -74q-201 0 -320 139q-113 132 -113 336q0 135 55 249q59 123 168 189q104 63 236 63q295 0 417 -217q85 -152 85 -346zM821 981
q0 212 -150 307q-71 45 -149 45q-134 0 -210 -108q-68 -95 -68 -234q0 -141 71 -230q76 -97 214 -97q134 0 215 93q77 88 77 224z" />
    <glyph glyph-name="colon" unicode=":" horiz-adv-x="339" 
d="M279 959q0 -46 -31.5 -79t-77.5 -33q-47 0 -78.5 32.5t-31.5 79.5q0 46 32 78.5t78 32.5t77.5 -32.5t31.5 -78.5zM279 99q0 -46 -31.5 -79t-77.5 -33q-47 0 -78.5 32.5t-31.5 79.5q0 46 32 78.5t78 32.5t77.5 -32.5t31.5 -78.5z" />
    <glyph glyph-name="semicolon" unicode=";" horiz-adv-x="349" 
d="M289 959q0 -46 -31.5 -79t-77.5 -33q-47 0 -78.5 32.5t-31.5 79.5t31.5 79t78.5 32q46 0 77.5 -32.5t31.5 -78.5zM289 99q-1 -3 -2 -19l-6 -80q-10 -129 -40 -183q-39 -69 -127 -107q-54 6 -54 52q0 11 4 25q104 46 113 200q-46 1 -76.5 33.5t-30.5 78.5q0 47 31.5 79
t78.5 32q46 0 77.5 -32.5t31.5 -78.5z" />
    <glyph glyph-name="less" unicode="&#x3c;" horiz-adv-x="1023" 
d="M963 347q0 -76 -52 -76q-10 0 -21 5l-771 365q-59 35 -59 86q0 54 59 82l771 360q6 3 13 3q25 0 42 -29q15 -25 15 -52q0 -68 -70 -101l-570 -266l570 -269q73 -34 73 -108z" />
    <glyph glyph-name="equal" unicode="=" horiz-adv-x="1213" 
d="M1153 928q0 -86 -55 -86h-968q-70 0 -70 82q0 86 70 86h968q55 0 55 -82zM1153 528q0 -86 -55 -86h-968q-70 0 -70 82q0 86 70 86h968q55 0 55 -82z" />
    <glyph glyph-name="greater" unicode="&#x3e;" horiz-adv-x="1023" 
d="M963 727q0 -51 -59 -86l-771 -365q-11 -5 -20 -5q-53 0 -53 76q0 74 73 108l570 269l-570 266q-69 32 -69 101q0 28 14 52q16 29 42 29q7 0 13 -3l771 -360q59 -28 59 -82z" />
    <glyph glyph-name="question" unicode="?" horiz-adv-x="1066" 
d="M247 1044q0 -60 -98 -60q-81 0 -83 57q-8 12 -6 27q1 10 6 39v330q0 48 85 48q96 0 96 -48v-20q112 74 288 74q193 0 325 -101q146 -112 146 -299q0 -113 -66 -210q-46 -67 -155 -164q-70 -62 -93 -89q-74 -86 -78 -238q-1 -49 -88 -49q-85 0 -85 49v25q0 179 101 300
q27 32 133 127q73 65 101 104q45 62 45 133q0 116 -85 191q-81 73 -198 73q-238 0 -291 -286v-13zM638 95q0 -44 -30 -75.5t-74 -31.5q-45 0 -75 31t-30 76q0 44 30.5 75t74.5 31t74 -31t30 -75z" />
    <glyph glyph-name="at" unicode="@" horiz-adv-x="2012" 
d="M1952 232q0 -8 -4 -15q-57 -106 -195 -200q-296 -202 -771 -202q-380 0 -615 145q-289 178 -306 513q-10 190 80 370q226 452 857 485q38 2 76 2q465 0 687 -281q103 -130 111 -290q11 -226 -165.5 -415.5t-403.5 -201.5q-130 -7 -175 54q-12 16 -20 55
q-107 -84 -264 -84q-268 0 -359 210q-43 100 -25 227q40 275 262 383q111 54 240 54q183 0 270 -115l14 92q6 39 90 39q91 0 85 -39l-106 -730q10 -22 48 -20q24 1 146 78q92 58 163 187q60 109 54 221q-16 290 -358 409q-147 51 -313 51q-235 0 -426 -84
q-213 -93 -328 -276q-105 -167 -95 -361q21 -401 437 -516q163 -45 355 -45q52 0 89 2q487 26 683 273q54 68 118 68t64 -43zM1205 669q0 255 -243 255q-139 0 -224 -93q-77 -84 -97 -227q-5 -36 -5 -66q0 -85 35 -148q59 -106 206 -106q134 0 221 89q81 82 101 219
q6 41 6 77z" />
    <glyph glyph-name="A" unicode="A" horiz-adv-x="1660" 
d="M1600 73q0 -88 -59 -88h-67l-8 -2q-7 -2 -16 2h-302q-48 0 -48 85q0 96 48 96h85l-148 398h-533l-142 -398h91q60 0 60 -98q0 -83 -60 -83h-393q-48 0 -48 85q0 96 48 96h100l480 1240q29 59 123 59q102 0 126 -59l511 -1240h93q59 0 59 -93zM1030 722l-217 514
l-200 -514h417z" />
    <glyph glyph-name="B" unicode="B" horiz-adv-x="1334" 
d="M1012 1068q0 162 -135 205q-63 20 -223 20h-293v-443h317q129 0 185 17q149 45 149 201zM167 1461v5h550q317 0 429 -181q57 -92 57 -194q0 -209 -205 -311q129 -38 201 -129q75 -94 75 -226q0 -215 -151 -328q-129 -97 -397 -97h-618q-48 0 -48 85q0 96 48 96h59v1099
h-59q-48 0 -48 85q0 96 48 96h59zM1073 425q0 176 -158 228q-73 24 -215 24h-339v-504h365q93 0 132 7q215 39 215 245z" />
    <glyph glyph-name="C" unicode="C" horiz-adv-x="1374" 
d="M1314 360q0 -21 -6 -34q-157 -351 -559 -351q-452 0 -611 376q-78 184 -78 393q0 474 337 659q161 88 355 88q214 0 356 -98v21q0 48 85 48q96 0 96 -48v-393q0 -60 -98 -60q-83 0 -83 60v83q-5 6 -8 12q-110 209 -352 209q-159 0 -273 -74q-120 -77 -169 -224
q-46 -138 -46 -282q0 -401 224 -535q115 -69 249 -69q289 0 394 257q19 69 78 69q42 0 75.5 -32.5t33.5 -74.5z" />
    <glyph glyph-name="D" unicode="D" horiz-adv-x="1427" 
d="M179 1465l-4 1h485q171 0 261 -21q280 -65 389 -355q57 -151 57 -349q0 -264 -97 -444q-115 -215 -350 -272q-103 -25 -236 -25h-576q-48 0 -48 85q0 96 48 96h67v1099h-67q-48 0 -48 85q0 100 43 100h76zM1167 744q0 419 -259 519q-78 30 -251 30h-288v-1120h293
q256 0 359 103q146 146 146 468z" />
    <glyph glyph-name="E" unicode="E" horiz-adv-x="1300" 
d="M165 1461v5h953q11 1 23 1h13q9 -1 13 -1h8q18 0 31 -8q31 -12 31 -39v-233q0 -57 -101 -57q-80 0 -80 57v107h-697v-449h506v104q0 48 85 48q96 0 96 -48v-353q0 -60 -98 -60q-83 0 -83 60v77h-506v-499h697v116q0 48 85 48q96 0 96 -48v-169q3 -12 3 -28q0 -14 -3 -26
v-10q0 -57 -101 -57q-11 0 -20 1h-1008q-48 0 -48 85q0 96 48 96h57v1099h-57q-48 0 -48 85q0 96 48 96h57z" />
    <glyph glyph-name="F" unicode="F" horiz-adv-x="1222" 
d="M192 1464v2h929q11 1 23 1h13q9 -1 13 -1h11q22 0 36 -11q23 -12 23 -36v-18q1 -10 1 -21t-1 -21v-173q0 -57 -101 -57q-80 0 -80 57v107h-673v-454h508v109q0 48 85 48q96 0 96 -48v-353q0 -60 -98 -60q-83 0 -83 60v71h-508v-518h115q60 0 60 -98q0 -83 -60 -83h-393
q-48 0 -48 85q0 96 48 96h84v1135h-79q-48 0 -48 85q0 96 48 96h79z" />
    <glyph glyph-name="G" unicode="G" horiz-adv-x="1477" 
d="M897 499q0 -57 -101 -57q-80 0 -80 57v233q0 48 80 48h7l613 -2l1 -757q-7 -66 -89 -66q-92 0 -99 66v60q-203 -106 -420 -106q-213 0 -383 87q-184 94 -276 273q-90 175 -90 391q0 212 83 387q92 196 264 288q168 90 387 90q231 0 377 -94v7q0 48 85 48q96 0 96 -48
v-393q0 -60 -98 -60q-83 0 -83 60v126q-115 188 -376 188q-254 0 -386 -147q-149 -165 -149 -440q0 -393 264 -524q129 -64 274 -64q109 0 227 41q123 42 201 111v303h-329v-106z" />
    <glyph glyph-name="H" unicode="H" horiz-adv-x="1501" 
d="M561 50q0 -83 -60 -83h-393q-48 0 -48 85q0 96 48 96h80v1139h-80q-48 0 -48 85q0 96 48 96h393q60 0 60 -98q0 -83 -60 -83h-119v-393h742v393h-136q-48 0 -48 85q0 96 48 96h393q60 0 60 -98q0 -83 -60 -83h-63v-1139h63q60 0 60 -98q0 -83 -60 -83h-393q-48 0 -48 85
q0 96 48 96h136v573h-742v-573h119q60 0 60 -98z" />
    <glyph glyph-name="I" unicode="I" horiz-adv-x="622" 
d="M562 60q0 -83 -60 -83h-393q-49 0 -49 85q0 96 49 96h105v1139h-105q-49 0 -49 85q0 96 49 96h194q9 1 18 1q10 0 19 -1h162q60 0 60 -98q0 -83 -60 -83h-94v-1139h94q60 0 60 -98z" />
    <glyph glyph-name="J" unicode="J" horiz-adv-x="1003" 
d="M832 395q0 -179 -51 -274q-34 -63 -124 -104q-75 -34 -141 -36q-33 -1 -74 -1q-262 0 -369 114q-13 14 -13 30q0 21 16 49q30 53 65 58q184 -76 337 -69q95 4 132 68q28 49 28 152q0 12 4 39t3 42l-4 57v777h-151q-48 0 -48 85q0 96 48 96h393q60 0 60 -98q0 -83 -60 -83
h-53v-777q0 -21 1 -62.5t1 -62.5z" />
    <glyph glyph-name="K" unicode="K" horiz-adv-x="1441" 
d="M561 60q0 -83 -60 -83h-393q-48 0 -48 85q0 96 48 96h66v1139h-66q-48 0 -48 85q0 96 48 96h393q60 0 60 -98q0 -83 -60 -83h-133v-558l560 558q-48 0 -48 85q0 96 48 96h393q60 0 60 -98q0 -83 -60 -83h-136l-532 -530l570 -601h98q60 0 60 -98q0 -83 -60 -83h-91
q-91 0 -155 67l-558 585l-149 -148v-331h133q60 0 60 -98z" />
    <glyph glyph-name="L" unicode="L" horiz-adv-x="1164" 
d="M108 0q-48 0 -48 85q0 96 48 96h67v1136h-66q-48 0 -48 85q0 96 48 96h393q60 0 60 -98q0 -83 -60 -83h-133v-1144h554v120q0 48 85 48q96 0 96 -48v-233q0 -33 -30 -48q-16 -12 -43 -12h-923z" />
    <glyph glyph-name="M" unicode="M" horiz-adv-x="1781" 
d="M1661 1287h-76v-1139h76q60 0 60 -98q0 -83 -60 -83h-393q-48 0 -48 85q0 96 48 96h130v989l-429 -869q-36 -53 -88 -53t-87 53l-421 890v-1010h128q60 0 60 -98q0 -83 -60 -83h-393q-48 0 -48 85q0 96 48 96h78v1139h-78q-48 0 -48 85q0 96 48 96h151q11 1 23 1
q146 0 217 -119l396 -837l394 820q65 135 206 135h166q60 0 60 -98q0 -83 -60 -83z" />
    <glyph glyph-name="N" unicode="N" horiz-adv-x="1501" 
d="M561 60q0 -83 -60 -83h-393q-48 0 -48 85q0 96 48 96h72v1139h-72q-48 0 -48 85q0 96 48 96h123q12 0 23 -3q84 -11 173 -131l722 -979v942h-161q-48 0 -48 85q0 96 48 96h393q60 0 60 -98q0 -83 -60 -83h-46v-1149h46q60 0 60 -98q0 -83 -60 -83h-83q-96 0 -244 199
l-688 926v-944h135q60 0 60 -98z" />
    <glyph glyph-name="O" unicode="O" horiz-adv-x="1522" 
d="M1462 731q0 -212 -82 -382q-90 -188 -263 -283q-165 -91 -356 -91q-203 0 -364 96q-166 98 -253 277q-84 172 -84 366q0 347 174 555q187 223 528 223q201 0 361 -93q165 -95 252 -271.5t87 -396.5zM1262 732q0 371 -237 520q-116 73 -262 73q-260 0 -390 -184
q-113 -159 -113 -430q0 -249 123 -403q134 -167 377 -167q251 0 383 176q119 157 119 415z" />
    <glyph glyph-name="P" unicode="P" horiz-adv-x="1291" 
d="M561 50q0 -83 -60 -83h-393q-48 0 -48 85q0 96 48 96h74v1139h-74q-48 0 -48 85q0 96 48 96h393q8 0 9 -2h155q142 0 223 -14q215 -37 299 -210q44 -90 44 -200q0 -446 -549 -446h-306v-448h125q60 0 60 -98zM1031 1036q0 86 -43 152q-46 70 -126 92q-48 13 -181 13h-305
v-524h309q346 0 346 267z" />
    <glyph glyph-name="Q" unicode="Q" horiz-adv-x="1522" 
d="M1462 731q0 -210 -79 -377q-87 -185 -256 -283q50 -119 123 -119q63 0 171 98q-36 -101 -43 -115q-45 -89 -120 -120q-54 -22 -96 -22q-88 0 -156 97q-26 37 -43 112q-97 -27 -202 -27q-203 0 -364 96q-166 98 -253 277q-84 172 -84 366q0 347 174 555q187 223 528 223
q201 0 361 -93q165 -95 252 -271.5t87 -396.5zM1262 732q0 371 -237 520q-116 73 -262 73q-260 0 -390 -184q-113 -159 -113 -430q0 -249 123 -403q134 -167 377 -167q98 0 178 28q-2 24 -5 70q-6 110 -37 196q-46 129 -129 129q-61 0 -172 -87q1 108 156 225q59 31 107 31
q83 0 151 -99q59 -86 81 -372q172 166 172 470z" />
    <glyph glyph-name="R" unicode="R" horiz-adv-x="1411" 
d="M561 50q0 -83 -60 -83h-393q-48 0 -48 85q0 96 48 96h74v1139h-74q-48 0 -48 85q0 96 48 96h393l-3 -2h177q142 0 223 -14q215 -37 299 -210q44 -90 44 -200q0 -261 -187 -369q163 -103 163 -288v-237h74q60 0 60 -98q0 -83 -60 -83h-136q-15 -2 -33 -2q-89 0 -95 53v359
q0 44 -38 108q-66 112 -238 112q-2 -2 -4 -3q-2 1 -2 3q-26 -1 -53 -1h-316v-448h125q60 0 60 -98zM1041 1036q0 86 -43 152q-46 70 -126 92q-48 13 -181 13h-315v-524h319q346 0 346 267z" />
    <glyph glyph-name="S" unicode="S" horiz-adv-x="1270" 
d="M201 119q-22 -7 -55 -7q-83 0 -83 60v187q-2 10 -3 22q-1 10 3 18v166q0 48 85 48q96 0 96 -48v-174q25 -134 190 -198q113 -44 225 -44q233 0 323 124q41 57 41 125q0 141 -172 207q-69 26 -275 74q-179 41 -269 89q-208 110 -208 319q0 120 68 215q66 92 179 139
q121 50 269 50q222 0 357 -86v4q0 48 85 48q96 0 96 -48v-393q0 -60 -98 -60q-83 0 -83 60v63q-6 7 -8 17q-51 224 -341 224q-133 0 -221 -43q-116 -57 -116 -177q0 -112 126 -171q51 -24 224 -63q235 -53 324 -94q250 -115 250 -358q0 -127 -72 -229q-68 -98 -187 -152
q-127 -58 -283 -58q-307 0 -467 144z" />
    <glyph glyph-name="T" unicode="T" horiz-adv-x="1181" 
d="M843 59q0 -82 -66 -82h-393q-48 0 -48 85q0 96 48 96h111v1135h-254v-115q0 -60 -98 -60q-83 0 -83 60v243q0 48 85 48q24 0 42 -3h801q16 3 37 3q24 0 42 -3h7q11 0 20 -7q27 -12 27 -38v-243q0 -60 -98 -60q-83 0 -83 60v115h-251v-1135h88q66 0 66 -99z" />
    <glyph glyph-name="U" unicode="U" 
d="M1338 619q0 -202 -38 -317q-108 -327 -535 -327q-409 0 -524 277q-56 135 -56 367v668h-77q-48 0 -48 85q0 96 48 96h123q19 5 44 5q20 0 38 -5h188q60 0 60 -98q0 -83 -60 -83h-122v-667q0 -160 21 -237q64 -233 348 -233q236 0 323 120q73 101 73 350v667h-146
q-48 0 -48 85q0 96 48 96h393q60 0 60 -98q0 -83 -60 -83h-53v-668z" />
    <glyph glyph-name="V" unicode="V" horiz-adv-x="1581" 
d="M1367 1297l-487 -1247q-27 -68 -104 -68q-68 0 -95 68l-490 1247h-83q-48 0 -48 85q0 96 48 96h393q60 0 60 -98q0 -83 -60 -83h-100l394 -1022l376 1022h-103q-48 0 -48 85q0 96 48 96h393q60 0 60 -98q0 -83 -60 -83h-94z" />
    <glyph glyph-name="W" unicode="W" horiz-adv-x="2111" 
d="M561 1380q0 -83 -60 -83h-130l238 -966l329 885q22 59 119 59q93 0 115 -59l323 -876l238 957h-135q-48 0 -48 85q0 96 48 96h393q60 0 60 -98q0 -83 -60 -83h-65l-334 -1257q-16 -60 -87 -60q-77 0 -100 60l-360 929l-349 -929q-24 -63 -107 -63q-75 0 -91 63l-325 1257
h-65q-48 0 -48 85q0 96 48 96h393q60 0 60 -98z" />
    <glyph glyph-name="X" unicode="X" horiz-adv-x="1531" 
d="M561 50q0 -83 -60 -83h-393q-48 0 -48 85q0 96 48 96h93l449 616l-373 533h-99q-48 0 -48 85q0 96 48 96h393q60 0 60 -98q0 -83 -60 -83h-61l261 -362l271 362h-94q-48 0 -48 85q0 96 48 96h279q20 3 44 3q27 0 47 -3h23q60 0 60 -98q0 -83 -60 -83h-86l-383 -522
l441 -627h98q60 0 60 -98q0 -83 -60 -83h-393q-48 0 -48 85q0 96 48 96h57l-318 466l-326 -466h70q60 0 60 -98z" />
    <glyph glyph-name="Y" unicode="Y" 
d="M1010 59q0 -82 -65 -82h-393q-48 0 -48 85q0 96 48 96h103v443l-459 736h-88q-48 0 -48 85q0 96 48 96h393q60 0 60 -98q0 -83 -60 -83h-71l323 -539l342 539h-97q-48 0 -48 85q0 96 48 96h393q60 0 60 -98q0 -83 -60 -83h-70l-472 -736v-443h96q65 0 65 -99z" />
    <glyph glyph-name="Z" unicode="Z" horiz-adv-x="1335" 
d="M1181 0zM1275 60q0 -60 -94 -60h-1049q-72 0 -72 46t72 134q151 184 412 555q268 381 411 558h-702v-119q0 -60 -98 -60q-83 0 -83 60v243q0 41 85 49h1030q67 0 67 -41q0 -42 -67 -132l-832 -1120h739v130q0 48 85 48q96 0 96 -48v-243z" />
    <glyph glyph-name="bracketleft" unicode="[" horiz-adv-x="459" 
d="M399 -336q0 -71 -42 -71h-297v1873h297q42 0 42 -74q0 -75 -42 -75h-117v-1575h117q42 0 42 -78z" />
    <glyph glyph-name="backslash" unicode="\" horiz-adv-x="817" 
d="M757 -32q0 -30 -72 -30q-67 0 -84 37l-540 1516q-1 4 -1 7q0 39 74 39q65 0 81 -46l541 -1516q1 -3 1 -7z" />
    <glyph glyph-name="bracketright" unicode="]" horiz-adv-x="459" 
d="M399 -407h-297q-42 0 -42 71q0 78 42 78h117v1575h-117q-42 0 -42 75q0 74 42 74h297v-1873z" />
    <glyph glyph-name="asciicircum" unicode="^" horiz-adv-x="766" 
d="M706 1084q0 -19 -35 -35q-30 -14 -52 -14q-54 0 -95 55l-147 197l-130 -207q-42 -54 -104 -54q-25 0 -51 11q-32 13 -32 34q0 6 2 9l243 411q30 38 72 38q43 0 73 -38l255 -401q1 -3 1 -6z" />
    <glyph glyph-name="underscore" unicode="_" horiz-adv-x="1289" 
d="M1229 -330q0 -88 -58 -88h-1063q-48 0 -48 85q0 96 48 96h1063q58 0 58 -93z" />
    <glyph glyph-name="grave" unicode="`" horiz-adv-x="384" 
d="M324 1279q0 -36 -42 -64q-37 -26 -75 -26q-36 0 -50 27l-93 185q-4 8 -4 16q0 34 47 60q41 24 78 24q31 0 40 -18l94 -185q5 -10 5 -19z" />
    <glyph glyph-name="a" unicode="a" horiz-adv-x="1197" 
d="M1137 50q0 -83 -60 -83h-183q-15 0 -25 8q-55 6 -55 45v114q-101 -158 -297 -158q-132 0 -238 73q-103 70 -160 193q-59 127 -59 288q0 349 212 487q106 69 237 69q187 0 293 -146v116q0 50 87 50q92 0 92 -50v-908h96q60 0 60 -98zM817 515q0 171 -59 281
q-76 141 -232 141q-152 0 -224 -135q-57 -106 -57 -272q0 -160 63 -271q77 -135 226 -135q147 0 222 128q61 105 61 263z" />
    <glyph glyph-name="b" unicode="b" horiz-adv-x="1171" 
d="M271 -24h-163q-48 0 -48 85q0 96 48 96h82v1130h-81q-48 0 -48 85q0 96 48 96h142q14 2 32 2q87 0 87 -54v-473q114 143 291 143q222 0 342 -164q108 -146 108 -375q0 -233 -110 -391q-126 -180 -349 -180q-188 0 -295 157v-113q-6 -44 -86 -44zM927 532q0 162 -59 270
q-74 136 -223 136q-146 0 -225 -133q-45 -76 -45 -266q0 -224 32 -276q85 -139 230 -139q149 0 227 137q63 111 63 271z" />
    <glyph glyph-name="c" unicode="c" horiz-adv-x="1015" 
d="M955 253q0 -16 -11 -28q-117 -249 -401 -249q-239 0 -366 160q-117 146 -117 391q0 367 231 495q116 64 253 64q117 0 204 -38v5q0 48 78 48q88 0 88 -48v-343q0 -60 -90 -60q-76 0 -76 60v130q-63 98 -197 98q-306 0 -306 -406q0 -408 296 -408q191 0 249 183
q21 34 59 34t70 -25q36 -27 36 -63z" />
    <glyph glyph-name="d" unicode="d" horiz-adv-x="1152" 
d="M1092 66q0 -88 -59 -88h-110q-11 -1 -23 -1q-80 0 -86 43v113q-107 -157 -295 -157q-223 0 -349 180q-110 158 -110 391q0 229 108 375q120 164 342 164q177 0 291 -143v345h-98q-48 0 -48 85q0 96 48 96h163q10 1 22 1q93 0 93 -54v-1257h52q59 0 59 -93zM796 539
q0 190 -45 266q-79 133 -225 133q-149 0 -223 -136q-59 -108 -59 -270q0 -160 63 -271q78 -137 227 -137q145 0 230 139q32 52 32 276z" />
    <glyph glyph-name="e" unicode="e" horiz-adv-x="1031" 
d="M992 549q0 -5 -1.5 -15t-1.5 -15l-770 -46q9 -152 86 -245q85 -104 232 -104q198 0 265 187q25 45 95 45q93 0 93 -55q0 -6 -2 -13q-42 -155 -168 -236q-117 -76 -284 -76q-245 0 -379 153q-127 144 -127 393q0 248 122 399q132 165 374 165q213 0 348 -145
q63 -68 89 -153q17 -57 29 -239zM809 668q-10 108 -58 166q-86 104 -223 104q-132 0 -214 -88q-79 -83 -88 -217z" />
    <glyph glyph-name="f" unicode="f" horiz-adv-x="722" 
d="M574 38q0 -83 -60 -83h-393q-48 0 -48 85q0 96 48 96h78v696h-89q-50 0 -50 65q0 85 50 85h89q0 20 -1 61t-1 61q0 168 51 257q75 130 265 130h180q66 -9 66 -80q0 -76 -67 -85h-144q-177 0 -177 -214q0 -22 3.5 -65t3.5 -65h207q60 -7 60 -82q0 -68 -60 -68h-207v-696
h136q60 0 60 -98z" />
    <glyph glyph-name="g" unicode="g" horiz-adv-x="1180" 
d="M996 144q0 -198 -30 -294q-88 -281 -470 -281q-307 0 -401 169q-7 10 -7 22q0 33 38 57q33 21 68 21q37 0 57 -24q36 -42 41 -46q67 -50 203 -50q255 0 305 190q14 53 13 231q-118 -139 -294 -139q-220 0 -345 163q-114 147 -114 374q0 335 215 479q104 70 245 70
q188 0 310 -152v98q0 50 73 55q6 2 14 2h143q60 0 60 -92q0 -77 -60 -77h-64v-776zM798 544q0 134 -1 146q-6 73 -35 120q-79 127 -229 127q-147 0 -224 -126q-64 -104 -64 -261q0 -169 60 -272q74 -129 231 -129q154 0 230 127q26 44 31 119q1 15 1 149z" />
    <glyph glyph-name="h" unicode="h" horiz-adv-x="1241" 
d="M561 50q0 -83 -60 -83h-393q-48 0 -48 85q0 96 48 96h71v1179h-71q-48 0 -48 85q0 96 48 96h173q14 0 24 -5q54 -9 54 -57v-476q100 116 318 116q250 0 330 -175q37 -81 37 -238v-520h77q60 0 60 -98q0 -83 -60 -83h-150q-11 -1 -24 -1q-83 0 -83 59v643q0 258 -224 258
q-81 0 -149 -40q-72 -42 -102 -113.5t-30 -206.5v-423h142q60 0 60 -98z" />
    <glyph glyph-name="i" unicode="i" horiz-adv-x="587" 
d="M417 1375q0 -46 -32 -79t-78 -33t-77.5 33t-31.5 79t31.5 78.5t77.5 32.5t78 -32.5t32 -78.5zM557 59q0 -82 -66 -82h-383q-48 0 -48 85q0 96 48 96h114v732h-83q-45 0 -45 84q0 97 45 97h163q10 0 18 -2q82 -3 82 -57v-854h89q66 0 66 -99z" />
    <glyph glyph-name="j" unicode="j" horiz-adv-x="466" 
d="M391 1359q0 -46 -32 -79t-78 -33t-77.5 33t-31.5 79t31.5 78.5t77.5 32.5t78 -32.5t32 -78.5zM382 4q0 -179 -51 -274q-75 -140 -265 -140h-180q-46 6 -46 80q0 79 47 85h144q177 0 177 236q0 23 -3.5 69t-3.5 69v761h-78q-48 0 -48 85q0 96 48 96h145q10 1 23 1
q89 0 89 -51v-892q0 -21 1 -62.5t1 -62.5z" />
    <glyph glyph-name="k" unicode="k" horiz-adv-x="1116" 
d="M531 50q0 -73 -60 -73h-363q-48 0 -48 75q0 96 48 96h72v1155h-69q-48 0 -48 85q0 96 48 96h153q7 0 12 -1q84 -3 84 -47v-806l314 318h-71q-48 0 -48 75q0 96 48 96h393q60 0 60 -98q0 -73 -60 -73h-91l-354 -361l378 -438h67q60 0 60 -98q0 -73 -60 -73h-67
q-7 -1 -14 -1q-57 0 -107 57l-388 444l-60 -57v-273h111q60 0 60 -98z" />
    <glyph glyph-name="l" unicode="l" horiz-adv-x="597" 
d="M537 59q0 -82 -66 -82h-363q-48 0 -48 85q0 96 48 96h89v1118q0 54 46 117q48 68 100 68q34 0 34 -55v-1248h94q66 0 66 -99z" />
    <glyph glyph-name="m" unicode="m" horiz-adv-x="1770" 
d="M521 50q0 -83 -60 -83h-353q-48 0 -48 85q0 96 48 96h50l-2 441q-2 499 415 499q107 0 191 -58t119 -158q25 99 127 160q92 56 201 56q173 0 277 -91q111 -96 111 -266v-580h53q60 0 60 -98q0 -83 -60 -83h-143q-7 0 -18 4q-77 17 -71 68v629q0 261 -209 261
q-240 0 -240 -283v-607q0 -72 -83 -72q-37 0 -65 17q-35 21 -32 55v650q0 105 -62 172.5t-166 67.5q-151 0 -197 -120q-26 -68 -26 -259v-405h123q60 0 60 -98z" />
    <glyph glyph-name="n" unicode="n" horiz-adv-x="1231" 
d="M521 61q0 -83 -60 -83h-353q-48 0 -48 85q0 96 48 96h68v356h-2q0 237 98 385q116 175 341 175q122 0 226 -66q207 -131 207 -484v-366h65q60 0 60 -98q0 -83 -60 -83h-160q-85 0 -85 63v482q0 170 -38 240q-72 133 -215 133q-142 0 -215 -130q-42 -75 -42 -234v-373h105
q60 0 60 -98z" />
    <glyph glyph-name="o" unicode="o" horiz-adv-x="1072" 
d="M1035 546q0 -372 -240 -505q-118 -65 -257 -65q-247 0 -377 158q-121 145 -121 397q0 295 164 437q137 118 334 118q241 0 373 -152q124 -144 124 -388zM850 537q0 167 -71 274q-82 126 -241 126q-162 0 -244 -128q-69 -107 -69 -278q0 -172 69 -279q82 -128 244 -128
q163 0 244 131q68 109 68 282z" />
    <glyph glyph-name="p" unicode="p" horiz-adv-x="1162" 
d="M514 -323q0 -79 -48 -79h-343q-60 0 -60 77q0 92 60 92h58v1156h-61q-60 0 -60 78q0 91 60 91h119q11 1 23 1q80 0 86 -43v-113q107 157 295 157q223 0 349 -180q110 -158 110 -391q0 -229 -108 -375q-120 -164 -342 -164q-177 0 -291 143v-360h105q48 0 48 -90zM918 538
q0 160 -63 271q-78 137 -227 137q-145 0 -230 -139q-32 -52 -32 -276q0 -190 45 -266q79 -133 225 -133q149 0 223 136q59 108 59 270z" />
    <glyph glyph-name="q" unicode="q" horiz-adv-x="1155" 
d="M1091 -326q0 -77 -60 -77h-343q-48 0 -48 79q0 89 48 89h113v362q-114 -143 -291 -143q-222 0 -342 164q-108 146 -108 375q0 233 110 391q126 180 349 180q188 0 295 -157v113q6 43 86 43q17 0 31 -2h104q60 0 60 -91q0 -78 -60 -78h-54v-1157h50q60 0 60 -91zM796 531
q0 224 -32 276q-85 139 -230 139q-149 0 -227 -137q-63 -111 -63 -271q0 -162 59 -270q74 -136 223 -136q146 0 225 133q45 76 45 266z" />
    <glyph glyph-name="r" unicode="r" horiz-adv-x="880" 
d="M561 50q0 -83 -60 -83h-393q-48 0 -48 85q0 96 48 96h75v736h-74q-48 0 -48 85q0 96 48 96h175q87 0 87 -54v-66q114 143 291 143q144 0 183 -34q33 -29 33 -65q0 -38 -30.5 -70t-68.5 -32q-15 0 -24 9q-28 44 -109 44q-146 0 -225 -133q-60 -101 -60 -264q0 -9 1 -27
t1 -27v-341h138q60 0 60 -98z" />
    <glyph glyph-name="s" unicode="s" horiz-adv-x="987" 
d="M212 34q-21 -23 -76 -23q-76 0 -76 60v263q0 48 78 48q88 0 88 -48v-80q64 -130 252 -130q264 0 264 169q0 61 -53 96q-36 24 -184 61q-170 43 -215 60q-215 83 -215 270q0 158 133 239q110 67 278 67q126 0 214 -31v18q0 48 78 48q88 0 88 -48v-263q0 -60 -90 -60
q-76 0 -76 60v49q-6 4 -11 10q-57 69 -190 69q-250 0 -250 -137q0 -76 91 -111q22 -9 159 -46q178 -49 209 -60q219 -81 219 -272q0 -202 -204 -292q-100 -44 -244 -44q-161 0 -267 58z" />
    <glyph glyph-name="t" unicode="t" horiz-adv-x="610" 
d="M567 59q0 -82 -66 -82h-393q-48 0 -48 85q0 96 48 96h96v714h-72q-44 0 -44 71q0 99 44 99h72v283q0 59 88 60q91 1 91 -52v-291h171q47 0 47 -95q0 -75 -47 -75h-171v-714h118q66 0 66 -99z" />
    <glyph glyph-name="u" unicode="u" horiz-adv-x="1241" 
d="M1049 524q0 -352 -207 -484q-104 -66 -226 -66q-226 0 -341 175q-98 148 -98 386l2 -1v363h-71q-48 0 -48 85q0 96 48 96h343q60 0 60 -98q0 -83 -60 -83h-92v-380q0 -159 42 -234q73 -129 215 -129q143 0 215 132q38 70 38 240v371h-91q-48 0 -48 85q0 96 48 96h343
q60 0 60 -98q0 -83 -60 -83h-72v-373z" />
    <glyph glyph-name="v" unicode="v" horiz-adv-x="1191" 
d="M1025 907l-343 -877q-19 -48 -76 -48q-73 0 -92 48l-343 877h-83q-48 0 -48 85q0 96 48 96h323q60 0 60 -98q0 -83 -60 -83h-52l243 -644l240 644h-64q-48 0 -48 85q0 96 48 96h323q60 0 60 -98q0 -83 -60 -83h-76z" />
    <glyph glyph-name="w" unicode="w" horiz-adv-x="1801" 
d="M514 1028q0 -91 -63 -91h-102v-406q0 -191 26 -259q46 -120 197 -120q104 0 167 69q61 66 61 171v650q-4 33 31 54q30 18 65 18q84 0 84 -72v-607q0 -283 240 -283q209 0 209 261v524h-91q-48 0 -48 85q0 96 48 96h343q60 0 60 -98q0 -83 -60 -83h-73v-584
q0 -170 -111 -266q-104 -91 -277 -91q-110 0 -202 55q-102 60 -126 161q-36 -100 -119.5 -158t-190.5 -58q-418 0 -416 499l2 442h-60q-48 0 -48 85q0 96 48 96h343q63 0 63 -90z" />
    <glyph glyph-name="x" unicode="x" horiz-adv-x="1161" 
d="M491 60q0 -83 -60 -83h-323q-48 0 -48 85q0 96 48 96h93l276 394l-259 365h-90q-48 0 -48 85q0 96 48 96h313q60 0 60 -98q0 -81 -58 -83l143 -201l145 201h-23q-48 0 -48 85q0 96 48 96h313q60 0 60 -98q0 -83 -60 -83h-75l-258 -355l283 -404h70q60 0 60 -98
q0 -83 -60 -83h-323q-48 0 -48 85q0 96 48 96h38l-170 261l-171 -261h16q60 0 60 -98z" />
    <glyph glyph-name="y" unicode="y" horiz-adv-x="1302" 
d="M1110 144q0 -198 -30 -294q-88 -281 -470 -281q-307 0 -401 169q-8 10 -8 22q0 32 41 55q35 20 70 20q34 0 54 -23q35 -40 40 -44q66 -50 203 -50q255 0 305 190q14 53 13 231q-118 -139 -294 -139q-219 0 -344 156q-115 144 -115 369v363h-66q-48 0 -48 85q0 96 48 96
h303q60 0 60 -98q0 -83 -60 -83h-55v-344q2 3 3 6q0 -169 60 -272q74 -129 231 -129q107 0 208 96q70 67 80 168q6 60 6 371v228q0 56 75 56h163q60 0 60 -91q0 -77 -60 -77h-72v-756z" />
    <glyph glyph-name="z" unicode="z" horiz-adv-x="1072" 
d="M219 833q0 -48 -74 -48q-83 0 -83 48v157q0 32 26 52t59 20h802q53 0 53 -30q0 -19 -53 -89l-595 -786l499 2v80q0 48 74 48q83 0 83 -48v-130q2 -12 2 -27q0 -23 -13 -44q-23 -38 -74 -38h-804q-61 0 -61 29q0 37 61 117l584 770h-486v-83z" />
    <glyph glyph-name="braceleft" unicode="{" horiz-adv-x="727" 
d="M667 1401q0 -62 -70 -67q-14 2 -37 2q-182 1 -182 -191q0 -69 22.5 -205t22.5 -205q0 -209 -188 -225q220 -12 220 -236q0 -61 -18 -181t-18 -181q0 -185 178 -186q63 0 63 -78q0 -79 -63 -79h-56q-276 0 -276 276q0 68 19.5 203t19.5 203q0 192 -176 178q-68 1 -68 81
q0 79 68 82q156 7 156 148q0 56 -28 162q-35 132 -35 259q0 196 91 267q80 63 285 63q30 0 51 -31q19 -27 19 -59z" />
    <glyph glyph-name="bar" unicode="|" horiz-adv-x="316" 
d="M256 1395l-2 -1725q0 -59 -97 -59t-97 59v1736q0 68 100 68q96 0 96 -79z" />
    <glyph glyph-name="braceright" unicode="}" horiz-adv-x="727" 
d="M667 510q0 -80 -68 -81q-176 14 -176 -178q0 -68 19.5 -203t19.5 -203q0 -276 -276 -276h-56q-63 0 -63 79q0 78 63 78q178 1 178 186q0 61 -18 181t-18 181q0 224 220 236q-188 16 -188 224q0 69 22.5 205.5t22.5 205.5q0 191 -181 191q-18 0 -38 -2q-70 5 -70 67
q0 32 19 59q21 31 51 31q205 0 285 -63q91 -71 91 -267q0 -127 -35 -260q-28 -107 -28 -162q0 -140 156 -147q68 -3 68 -82z" />
    <glyph glyph-name="asciitilde" unicode="~" horiz-adv-x="1063" 
d="M1003 853q0 -61 -33 -120q-88 -157 -239 -157q-91 0 -248 133q-102 86 -170 86q-104 0 -226 -222q-27 28 -27 93q0 64 27 152q78 166 240 166q94 0 271 -142q96 -77 150 -77q114 0 222 224q33 -99 33 -136z" />
    <glyph glyph-name="quotesinglbase" unicode="&#x201a;" horiz-adv-x="349" 
d="M289 99q-1 -3 -2 -19l-6 -80q-10 -129 -40 -183q-39 -69 -127 -107q-54 6 -54 52q0 11 4 25q105 46 113 200q-45 1 -76 34t-31 78q0 46 32 78.5t78 32.5t77.5 -32.5t31.5 -78.5z" />
    <glyph glyph-name="florin" unicode="&#x192;" horiz-adv-x="1265" 
d="M1205 1444q0 -8 -2 -24q-10 -79 -58 -87l-144 -6q-177 -7 -206 -222q-2 -43 -10 -130l207 9q51 -4 51 -54q0 -7 -1 -15q-9 -68 -69 -71l-207 -9l-74 -552q0 -12 -7 -32l-15 -123q-6 -32 -21 -127q-28 -185 -88 -276q-93 -143 -284 -151l-180 -8q-37 4 -37 54q0 8 2 24
q10 79 58 87l144 6q177 7 209 244q2 71 11 138l81 602q2 15 11 26l11 81l-189 -4q-24 0 -30 22q-5 16 -1 42q10 75 50 76l189 4q6 64 14 122q52 386 368 400l180 8q37 -4 37 -54z" />
    <glyph glyph-name="quotedblbase" unicode="&#x201e;" horiz-adv-x="699" 
d="M639 99q-1 -3 -2 -19l-6 -80q-10 -129 -40 -183q-39 -69 -127 -107q-54 6 -54 52q0 11 4 25q105 46 113 200q-45 1 -76 34t-31 78q0 46 32 78.5t78 32.5t77.5 -32.5t31.5 -78.5zM289 99q-1 -3 -2 -19l-6 -80q-10 -129 -40 -183q-39 -69 -127 -107q-54 6 -54 52q0 11 4 25
q105 46 113 200q-45 1 -76 34t-31 78q0 46 32 78.5t78 32.5t77.5 -32.5t31.5 -78.5z" />
    <glyph glyph-name="ellipsis" unicode="&#x2026;" horiz-adv-x="1627" 
d="M1567 98q0 -46 -31.5 -79t-77.5 -33q-47 0 -78.5 32.5t-31.5 79.5q0 46 32 78.5t78 32.5t77.5 -32.5t31.5 -78.5zM924 103q0 -46 -31.5 -79t-77.5 -33q-47 0 -78.5 32.5t-31.5 79.5q0 46 32 78.5t78 32.5t77.5 -32.5t31.5 -78.5zM279 104q0 -46 -31.5 -79t-77.5 -33
q-47 0 -78.5 32.5t-31.5 79.5q0 46 32 78.5t78 32.5t77.5 -32.5t31.5 -78.5z" />
    <glyph glyph-name="dagger" unicode="&#x2020;" horiz-adv-x="773" 
d="M713 1027q0 -75 -47 -75h-191v-1051q0 -59 -86 -59q-93 0 -93 59v1051h-192q-44 0 -44 71q0 79 44 79h192v273q0 59 88 60q91 1 91 -52v-281h191q47 0 47 -75z" />
    <glyph glyph-name="daggerdbl" unicode="&#x2021;" horiz-adv-x="773" 
d="M713 257q0 -75 -47 -75h-191v-281q0 -59 -86 -59q-93 0 -93 59v281h-192q-44 0 -44 78q0 72 44 72h192v620h-192q-44 0 -44 72q0 78 44 78h192v281q0 59 96 59q83 0 83 -59v-281h191q47 0 47 -75t-47 -75h-191v-620h191q47 0 47 -75z" />
    <glyph glyph-name="circumflex" unicode="&#x2c6;" horiz-adv-x="802" 
d="M742 1219q0 -15 -40 -25q-32 -8 -52 -8q-57 0 -100 36l-155 131l-138 -137q-36 -36 -109 -36q-88 0 -88 30q0 4 2 6l257 273q31 25 76 25t77 -25l269 -267q1 -1 1 -3z" />
    <glyph glyph-name="perthousand" unicode="&#x2030;" horiz-adv-x="2036" 
d="M1976 333q0 -155 -62 -260q-75 -127 -219 -127q-146 0 -218 134q-56 105 -56 264q0 151 60 253q73 124 213 124q146 0 221 -127q61 -104 61 -261zM1837 340q0 257 -139 257t-139 -271q0 -256 139 -256t139 270zM1186 1082q0 -30 -17 -52l-813 -725q-15 -11 -32 -11
q-35 0 -62 36q-25 33 -25 69q0 30 23 51l813 725q13 12 32 12q35 0 59 -36q22 -32 22 -69zM615 1103q0 -154 -62 -259q-76 -128 -219 -128q-146 0 -218 133q-56 104 -56 265q0 149 60 252q73 125 212 125q147 0 222 -127q61 -103 61 -261zM476 1110q0 257 -139 257
q-138 0 -138 -271q0 -256 138 -256q139 0 139 270zM1366 333q0 -155 -62 -260q-75 -127 -220 -127t-217 134q-57 106 -57 264q0 151 60 253q73 124 213 124q147 0 222 -127q61 -104 61 -261zM1227 340q0 257 -139 257t-139 -271q0 -256 138 -256q140 0 140 270z" />
    <glyph glyph-name="Scaron" unicode="&#x160;" horiz-adv-x="1270" 
d="M946 1837l-270 -264q-28 -27 -76 -27q-50 0 -76 27l-258 272q-2 3 -2 6q0 29 88 29q66 0 111 -35l137 -139l156 131q44 37 98 37q22 0 53 -8q39 -10 39 -25v-4zM1210 414q0 -127 -72 -229q-68 -98 -187 -152q-127 -58 -283 -58q-308 0 -468 144q-22 -7 -54 -7
q-83 0 -83 60v187q-2 9 -3 22q-1 10 3 18v166q0 48 85 48q96 0 96 -48v-174q25 -134 190 -198q113 -44 225 -44q233 0 323 124q41 57 41 125q0 141 -172 207q-69 26 -275 74q-179 41 -269 89q-208 110 -208 319q0 120 68 215q66 92 179 139q121 50 269 50q222 0 357 -86v4
q0 48 85 48q96 0 96 -48v-393q0 -60 -98 -60q-83 0 -83 60v63q-6 7 -8 17q-51 224 -341 224q-133 0 -221 -43q-116 -57 -116 -177q0 -112 126 -171q51 -24 224 -63q235 -53 324 -94q250 -115 250 -358z" />
    <glyph glyph-name="guilsinglleft" unicode="&#x2039;" horiz-adv-x="624" 
d="M564 1072q0 -53 -54 -82l-190 -266l190 -269q53 -21 53 -80q0 -39 -21 -72q-24 -39 -60 -39q-16 0 -32 12l-331 365q-59 35 -59 86q0 56 59 82l331 360q11 12 28 12q36 0 62 -38q24 -34 24 -71z" />
    <glyph glyph-name="OE" unicode="&#x152;" horiz-adv-x="1944" 
d="M721 142q11 17 31 17h57v1140h-57q-25 0 -37 24q-239 -17 -356 -202q-99 -156 -99 -410q0 -235 111 -387q123 -168 350 -182zM1260 668h-257v-472q81 43 140 121q104 138 117 351zM1003 1265v-419h253q-34 297 -253 419zM809 1491v0h953q11 1 23 1h13q9 -1 13 -1h8
q18 0 31 -8q31 -12 31 -40v-242q0 -59 -101 -59q-80 0 -80 59v111h-460q183 -172 216 -466h53v108q0 50 85 50q96 0 96 -50v-366q0 -62 -98 -62q-83 0 -83 62v80h-49q-20 -330 -225 -518h465v121q0 50 85 50q96 0 96 -50v-175q3 -13 3 -30q0 -14 -3 -26v-11q0 -59 -101 -59
q-11 0 -20 1h-1008q-11 0 -19 4q-194 7 -348 103q-157 98 -241 270t-84 366q0 347 174 555q187 223 528 223q24 0 47 -1z" />
    <glyph glyph-name="quoteleft" unicode="&#x2018;" horiz-adv-x="372" 
d="M312 1440q0 -8 -6 -25q-108 -46 -126 -200q46 -1 74 -33.5t25 -78.5q-3 -47 -36.5 -79t-80.5 -32q-46 0 -75.5 32.5t-26.5 78.5q0 1 3 19l12 80q20 133 52 183q44 69 134 107q54 -6 51 -52z" />
    <glyph glyph-name="quoteright" unicode="&#x2019;" horiz-adv-x="369" 
d="M309 1381q-1 -3 -3 -19l-11 -80q-18 -130 -51 -183q-43 -69 -134 -107q-52 6 -50 52q0 11 5 25q108 46 125 200q-45 1 -74 34t-26 78q3 46 37 78.5t80 32.5t75.5 -32.5t26.5 -78.5z" />
    <glyph glyph-name="quotedblleft" unicode="&#x201c;" horiz-adv-x="716" 
d="M656 1444q-1 -11 -7 -25q-110 -47 -134 -201q45 0 72 -33t23 -78q-5 -46 -40.5 -78.5t-81.5 -33.5q-48 -1 -75 31t-22 80q1 4 4 19l14 80q22 128 60 183q47 69 138 108q54 -6 49 -52zM326 1442q-1 -11 -7 -25q-110 -46 -134 -201q45 0 72 -33t23 -78q-5 -46 -40.5 -78.5
t-81.5 -33.5q-48 -1 -75 31t-22 80q1 4 4 19l14 80q22 128 60 183q47 69 138 108q54 -6 49 -52z" />
    <glyph glyph-name="quotedblright" unicode="&#x201d;" horiz-adv-x="702" 
d="M642 1381q-1 -4 -4 -19l-11 -80q-18 -130 -52 -183q-44 -69 -134 -106q-54 6 -51 52q0 8 6 25q108 45 126 199q-46 1 -74.5 34t-24.5 79q4 47 37 78.5t80 31.5q46 0 75.5 -32.5t26.5 -78.5zM312 1382q-2 -7 -4 -19l-11 -80q-18 -128 -52 -182q-44 -69 -134 -107
q-54 7 -51 53q0 8 6 25q108 45 126 199q-46 1 -74.5 34t-24.5 79q4 47 37 78.5t80 31.5q46 0 75.5 -33t26.5 -79z" />
    <glyph glyph-name="bullet" unicode="&#x2022;" horiz-adv-x="498" 
d="M438 721q0 -83 -52.5 -138t-135.5 -55q-84 0 -137 54.5t-53 138.5q0 83 53.5 137.5t136.5 54.5q82 0 135 -54.5t53 -137.5zM407 721q0 68 -44.5 114t-112.5 46q-67 0 -113 -46.5t-46 -113.5q0 -68 45.5 -114.5t113.5 -46.5q69 0 113 45.5t44 115.5zM380 721
q0 -56 -37 -95t-93 -39t-94 39t-38 95t38 94.5t94 38.5q55 0 92.5 -39t37.5 -94zM359 721q0 46 -31.5 78.5t-77.5 32.5q-47 0 -78.5 -32t-31.5 -79t31.5 -79.5t78.5 -32.5q46 0 77.5 33t31.5 79zM337 721q0 -37 -25.5 -63.5t-62.5 -26.5q-38 0 -63 26t-25 64q0 37 25.5 63
t62.5 26t62.5 -26t25.5 -63z" />
    <glyph glyph-name="endash" unicode="&#x2013;" horiz-adv-x="1269" 
d="M1209 530q0 -88 -58 -88h-1043q-48 0 -48 85q0 96 48 96h1043q58 0 58 -93z" />
    <glyph glyph-name="emdash" unicode="&#x2014;" horiz-adv-x="2179" 
d="M2119 530q0 -88 -58 -88h-1953q-48 0 -48 85q0 96 48 96h1953q58 0 58 -93z" />
    <glyph glyph-name="tilde" unicode="&#x2dc;" horiz-adv-x="733" 
d="M673 1372q3 -62 -30 -115q-67 -109 -166 -100q-33 3 -134 88t-111 86q-58 5 -151 -149q-21 29 -21 73q0 49 26 118q61 116 168 107q37 -3 140 -88t106 -85q65 -6 155 161q8 -32 18 -96z" />
    <glyph glyph-name="trademark" unicode="&#x2122;" horiz-adv-x="1264" 
d="M378 658q0 -27 -27 -27h-159q-20 0 -20 28q0 33 20 33h45v381h-103v-39q0 -20 -40 -20q-34 0 -34 20v82q0 16 35 16q9 0 17 -1h325q6 1 15 1q10 0 17 -1h3q5 0 8 -3q11 -4 11 -12v-82q0 -20 -40 -20q-33 0 -33 20v39h-102v-381h35q27 0 27 -34zM1179 1071h-31v-382h31
q25 0 25 -33q0 -28 -25 -28h-159q-20 0 -20 28q0 33 20 33h52v332l-174 -292q-15 -18 -36 -18t-35 18l-171 299v-339h52q24 0 24 -33q0 -28 -24 -28h-160q-19 0 -19 28q0 33 19 33h32v382h-32q-19 0 -19 29q0 32 19 32h71q59 0 88 -40l161 -281l160 276q26 45 84 45h67
q25 0 25 -33q0 -28 -25 -28z" />
    <glyph glyph-name="scaron" unicode="&#x161;" horiz-adv-x="987" 
d="M828 1483l-271 -266q-25 -25 -75 -25q-45 0 -76 25l-258 272q-2 3 -2 6q0 31 88 31q70 0 108 -37l140 -137l153 131q41 35 101 35q23 0 53 -8q39 -10 39 -25v-2zM212 34q-21 -23 -76 -23q-76 0 -76 60v263q0 48 78 48q88 0 88 -48v-80q64 -130 252 -130q264 0 264 169
q0 61 -53 96q-36 24 -184 61q-170 43 -215 60q-215 83 -215 270q0 158 133 239q110 67 278 67q126 0 214 -31v18q0 48 78 48q88 0 88 -48v-263q0 -60 -90 -60q-76 0 -76 60v49q-6 4 -11 10q-57 69 -190 69q-250 0 -250 -137q0 -76 91 -111q22 -9 159 -46q178 -49 209 -60
q219 -81 219 -272q0 -202 -204 -292q-100 -44 -244 -44q-161 0 -267 58z" />
    <glyph glyph-name="guilsinglright" unicode="&#x203a;" horiz-adv-x="624" 
d="M564 727q0 -51 -58 -86l-331 -365q-16 -12 -33 -12q-36 0 -59 39q-21 34 -21 72q0 59 53 80l190 269l-190 266q-55 29 -55 82q0 37 25 71q27 38 62 38q17 0 28 -12l331 -360q58 -26 58 -82z" />
    <glyph glyph-name="oe" unicode="&#x153;" horiz-adv-x="1899" 
d="M1839 549q0 -5 -1.5 -15t-1.5 -15l-770 -46q9 -152 86 -245q85 -104 232 -104q198 0 265 187q25 45 95 45q93 0 93 -55q0 -6 -2 -13q-42 -155 -168 -236q-117 -76 -284 -76q-283 0 -417 205q-133 -205 -408 -205q-247 0 -377 158q-121 145 -121 397q0 295 164 437
q137 118 334 118q234 0 369 -155q25 -29 41 -54q134 209 405 209q213 0 348 -145q63 -68 89 -153q17 -57 29 -239zM1656 668q-10 108 -58 166q-86 104 -223 104q-132 0 -214 -88q-79 -83 -88 -217zM870 537q0 167 -71 274q-82 126 -241 126q-162 0 -244 -128
q-69 -107 -69 -278q0 -172 69 -279q82 -128 244 -128q163 0 244 131q68 109 68 282z" />
    <glyph glyph-name="Ydieresis" unicode="&#x178;" 
d="M1036 1663q0 -47 -30.5 -80t-77.5 -33t-79 33t-32 80q0 45 33 78t78 33q46 0 77 -32.5t31 -78.5zM686 1663q0 -47 -30.5 -80t-77.5 -33q-48 0 -78.5 32.5t-30.5 80.5q0 45 32 78t77 33q46 0 77 -32.5t31 -78.5zM1451 1410q0 -83 -60 -83h-70l-472 -736v-443h96
q65 0 65 -99q0 -82 -65 -82h-393q-48 0 -48 85q0 96 48 96h103v443l-459 736h-88q-48 0 -48 85q0 96 48 96h393q60 0 60 -98q0 -83 -60 -83h-71l323 -539l342 539h-97q-48 0 -48 85q0 96 48 96h393q60 0 60 -98z" />
    <glyph glyph-name="exclamdown" unicode="&#xa1;" horiz-adv-x="352" 
d="M281 1138q0 -44 -30.5 -75t-74.5 -31t-74 31t-30 75t30 75.5t74 31.5q45 0 75 -31t30 -76zM292 -182q-4 -76 -113 -76q-44 0 -79 18q-45 23 -40 63q61 505 61 932q0 60 -1 118q4 31 56 31q56 0 60 -31q-3 -57 -3 -131q0 -450 59 -924z" />
    <glyph glyph-name="cent" unicode="&#xa2;" horiz-adv-x="1015" 
d="M750 23q-44 -27 -106 -39v-184q-8 -69 -91 -69q-90 0 -90 72v179q-203 28 -309 189q-94 143 -94 360q0 367 231 495q81 45 172 58v182q0 66 82 66q85 0 99 -69v-181q57 -9 104 -30v5q0 48 78 48q88 0 88 -48v-343q0 -60 -90 -60q-76 0 -76 60v130q-35 55 -93 79
q-6 1 -11 3v-239q-8 -68 -91 -68q-90 0 -90 71v237q-212 -57 -212 -395q0 -348 212 -396v250q0 66 82 66q85 0 99 -69v-238q105 38 146 166q21 34 59 34t70 -25q36 -27 36 -63q0 -16 -11 -28q-55 -139 -194 -206z" />
    <glyph glyph-name="sterling" unicode="&#xa3;" horiz-adv-x="1160" 
d="M1017 265q83 0 83 -60v-113q0 -8 -2 -14q-2 -78 -52 -78h-882v73q-1 5 -1 10v557h-55q-48 0 -48 85q0 96 48 96h55v264q0 184 139 290q126 97 315 97q179 0 296 -79q18 35 92 35q83 0 83 -60v-272q4 -28 5 -48q1 -18 -5 -33v-40q0 -48 -85 -48q-96 0 -96 48v85
q0 121 -84 194q-80 69 -202 69q-117 0 -194 -68q-82 -71 -82 -186q0 -6 -2 -9v-239h388q59 0 59 -95q0 -86 -59 -86h-388v-465l576 -2v32q0 60 98 60z" />
    <glyph glyph-name="currency" unicode="&#xa4;" horiz-adv-x="1054" 
d="M994 379q0 -37 -31.5 -68.5t-68.5 -31.5q-28 0 -46 19l-130 134q-82 -54 -188 -54q-117 0 -203 61l-129 -126q-18 -18 -42 -18q-40 0 -68 32.5t-28 72.5q0 24 12 43l142 138q-33 77 -33 168q0 100 37 182l-131 134q-17 17 -17 42q0 40 32 68.5t73 28.5q23 0 43 -13
l115 -119q84 57 196 57q104 0 184 -49l127 124q16 16 44 16q37 0 69 -32t32 -69q0 -25 -20 -45l-131 -128q43 -87 43 -193q0 -100 -40 -184l142 -146q15 -19 15 -44zM729 758q0 41 -8 77l-7 -6q-21 -18 -42 -18q-40 0 -68 32.5t-28 72.5q0 24 13 43l22 22q-37 15 -82 15
q-56 0 -98 -24l31 -32q16 -20 16 -44q0 -37 -32 -69.5t-69 -32.5q-26 0 -44 19q-4 -29 -4 -60q0 -30 4 -59q16 10 35 10q37 0 68.5 -32t31.5 -69q0 -26 -19 -45l-22 -22q43 -26 102 -26q52 0 92 21l-17 18q-18 19 -18 42q0 40 32.5 68t72.5 28q16 0 30 -6q8 37 8 77z" />
    <glyph glyph-name="yen" unicode="&#xa5;" 
d="M1451 1420q0 -83 -60 -83h-70l-293 -456h204q55 0 55 -82q0 -86 -55 -86h-311l-72 -112v-120h383q55 0 55 -82q0 -86 -55 -86h-383v-155h96q65 0 65 -99q0 -82 -65 -82h-393q-48 0 -48 85q0 96 48 96h103v155h-371q-70 0 -70 81q0 87 70 87h371v120l-70 112h-301
q-70 0 -70 81q0 87 70 87h196l-284 456h-88q-48 0 -48 85q0 96 48 96h393q60 0 60 -98q0 -83 -60 -83h-71l273 -456h103l289 456h-97q-48 0 -48 85q0 96 48 96h393q60 0 60 -98z" />
    <glyph glyph-name="brokenbar" unicode="&#xa6;" horiz-adv-x="301" 
d="M241 777q-8 -68 -92 -68q-89 0 -89 71v786q0 66 83 66q84 0 98 -69v-786zM241 -330q-8 -69 -91 -69q-90 0 -90 72v803q0 66 82 66q85 0 99 -69v-803z" />
    <glyph glyph-name="section" unicode="&#xa7;" horiz-adv-x="861" 
d="M801 546q0 -195 -113 -300q73 -84 73 -238q0 -236 -166 -341q-81 -51 -197 -51q-248 0 -334 243q-4 11 -4 22q0 37 24 69q27 36 62 36q26 0 42 -30q49 -167 209 -167q214 0 214 197q0 71 -43 112q-24 23 -109 56q-5 0 -77 25t-78 29q-48 18 -127 61q-27 23 -55 82
q-52 84 -52 204q0 198 123 293q-83 92 -83 245q0 164 84 258q87 99 249 99q213 0 291 -155l2 -3q6 -12 6 -26q0 -33 -30.5 -63.5t-63.5 -30.5q-26 0 -40 25q-44 80 -154 80q-203 0 -203 -160q0 -89 74 -129q21 -11 129 -54q144 -57 169 -70q178 -94 178 -318zM651 524
q0 69 -41 110q-27 -1 -42 25l-3 4q-17 9 -189 75q-165 -16 -165 -158q0 -88 74 -130q15 -9 129 -54q14 -6 127 -51q110 42 110 179z" />
    <glyph glyph-name="dieresis" unicode="&#xa8;" horiz-adv-x="689" 
d="M629 1376q0 -46 -31.5 -79t-77.5 -33q-47 0 -78.5 32.5t-31.5 79.5q0 46 32 78.5t78 32.5t77.5 -32.5t31.5 -78.5zM279 1376q0 -46 -31.5 -79t-77.5 -33q-47 0 -78.5 32.5t-31.5 79.5q0 46 32 78.5t78 32.5t77.5 -32.5t31.5 -78.5z" />
    <glyph glyph-name="copyright" unicode="&#xa9;" horiz-adv-x="1522" 
d="M1462 731q0 -212 -82 -382q-90 -188 -263 -283q-165 -91 -356 -91q-203 0 -364 96q-166 98 -253 277q-84 172 -84 366q0 347 174 555q187 223 528 223q201 0 361 -93q165 -95 252 -271.5t87 -396.5zM1262 732q0 371 -237 520q-116 73 -262 73q-260 0 -390 -184
q-113 -159 -113 -430q0 -249 123 -403q134 -167 377 -167q251 0 383 176q119 157 119 415zM1115 495q0 -12 -4 -21q-96 -216 -340 -216q-276 0 -373 232q-47 113 -47 242q0 293 205 407q97 54 216 54q131 0 217 -60v13q0 29 52 29q59 0 59 -29v-243q0 -37 -60 -37
q-51 0 -51 37v51q-64 84 -88 102q-46 35 -131 35q-209 0 -269 -184q-28 -86 -28 -174q0 -247 136 -330q71 -43 152 -43q176 0 240 159q11 42 47 42q26 0 46.5 -20t20.5 -46z" />
    <glyph glyph-name="ordfeminine" unicode="&#xaa;" horiz-adv-x="926" 
d="M815 686h-135q-12 0 -21 6q-45 5 -45 38v55q-76 -93 -211 -93q-206 0 -299 186q-44 88 -44 200q0 242 159 338q80 48 178 48q130 0 208 -86v58q0 42 72 42q75 0 75 -42v-612h63q51 0 51 -74q0 -64 -51 -64zM410 1348q-199 0 -199 -270q0 -111 46 -183q55 -87 159 -87
q103 0 156 81q44 69 44 178q0 117 -43 191q-53 90 -163 90z" />
    <glyph glyph-name="guillemotleft" unicode="&#xab;" horiz-adv-x="1067" 
d="M1007 1072q0 -53 -55 -82l-190 -266l190 -269q53 -21 53 -80q0 -38 -21 -72q-23 -39 -59 -39q-17 0 -33 12l-331 365q-58 35 -58 86q0 56 58 82l331 360q11 12 28 12q35 0 62 -38q25 -34 25 -71zM564 1081q0 -53 -54 -82l-190 -266l190 -269q53 -21 53 -80q0 -39 -21 -72
q-24 -39 -60 -39q-16 0 -32 12l-331 365q-59 35 -59 86q0 56 59 82l331 360q11 12 28 12q36 0 62 -38q24 -34 24 -71z" />
    <glyph glyph-name="logicalnot" unicode="&#xac;" horiz-adv-x="1000" 
d="M940 729q0 -11 -2 -23v-239q0 -48 -85 -48q-96 0 -96 48v173h-649q-48 0 -48 85q0 96 48 96h773q38 0 53 -52q6 -15 6 -40z" />
    <glyph glyph-name="registered" unicode="&#xae;" horiz-adv-x="1522" 
d="M1462 731q0 -212 -82 -382q-90 -188 -263 -283q-165 -91 -356 -91q-203 0 -364 96q-166 98 -253 277q-84 172 -84 366q0 347 174 555q187 223 528 223q201 0 361 -93q165 -95 252 -271.5t87 -396.5zM1262 732q0 371 -237 520q-116 73 -262 73q-260 0 -390 -184
q-113 -159 -113 -430q0 -249 123 -403q134 -167 377 -167q251 0 383 176q119 157 119 415zM699 379q0 -47 -33 -47h-217q-27 0 -27 48q0 54 27 54h41v641h-41q-27 0 -27 48q0 54 27 54h217q1 -1 -1 -1h97q79 0 124 -8q119 -21 165 -118q24 -50 24 -113q0 -147 -103 -208
q90 -58 90 -162v-133h41q33 0 33 -55q0 -47 -33 -47h-75q-8 -1 -19 -1q-49 0 -52 30v202q0 25 -21 61q-37 63 -132 63l-2 -2q-1 1 -1 2q-14 -1 -29 -1h-175v-252h69q33 0 33 -55zM965 934q0 111 -94 137q-25 7 -100 7h-174v-295h176q192 0 192 151z" />
    <glyph glyph-name="degree" unicode="&#xb0;" horiz-adv-x="700" 
d="M640 1214q0 -128 -81.5 -209t-209.5 -81t-208.5 81t-80.5 209q0 127 81 208.5t208 81.5q128 0 209.5 -81t81.5 -209zM506 1214q0 66 -45 111.5t-111 45.5q-65 0 -110.5 -46t-45.5 -111t45.5 -110.5t110.5 -45.5q66 0 111 45t45 111z" />
    <glyph glyph-name="plusminus" unicode="&#xb1;" horiz-adv-x="1120" 
d="M1060 720q0 -81 -42 -81h-369v-372q0 -47 -83 -47q-87 0 -87 47v372h-369q-50 0 -50 76q0 92 50 92h369v369q0 50 86 50q84 0 84 -50v-369h369q42 0 42 -87zM1053 88q0 -88 -59 -88h-883q-48 0 -48 85q0 96 48 96h883q59 0 59 -93z" />
    <glyph glyph-name="twosuperior" unicode="&#xb2;" horiz-adv-x="723" 
d="M603 724h-543l408 435q2 4 7 8q48 56 48 103q0 58 -51 92q-45 29 -106 29q-65 0 -110 -29q-53 -35 -53 -96v-12q0 -38 -66 -38q-33 0 -47 13q-12 9 -12 32q0 10 2 22v169q0 33 55 33q68 0 68 -33v-4q67 33 165 33q115 0 190 -48q90 -57 90 -165q0 -46 -31 -105.5
t-70 -81.5l-239 -255h232v38q0 32 59 32q64 0 64 -32v-102q0 -38 -60 -38zM597 724v15h6v-15h-6z" />
    <glyph glyph-name="threesuperior" unicode="&#xb3;" horiz-adv-x="700" 
d="M173 730q-5 -26 -60 -26q-51 0 -51 31v116q-2 6 -2 10q0 6 2 12v67q0 25 52 25q59 0 59 -25v-54q43 -118 166 -118q77 0 128 41q56 44 56 119q0 74 -56 114q-49 35 -126 37q-24 0 -51 13q-32 14 -32 35q0 20 43 20q72 -1 121 27q61 34 61 101q0 119 -146 119
q-111 0 -149 -89v-68q0 -31 -60 -31q-51 0 -51 31v205q0 25 52 25q59 0 59 -25v-2q60 32 146 32q159 0 230 -101q32 -45 32 -98q0 -137 -123 -152q54 -5 83 -25q9 -6 42 -45q42 -49 42 -121q0 -117 -96 -183q-84 -57 -206 -57q-95 0 -165 40z" />
    <glyph glyph-name="acute" unicode="&#xb4;" horiz-adv-x="384" 
d="M324 1415q0 -8 -4 -16l-94 -185q-14 -27 -49 -27q-38 0 -75 26q-42 28 -42 64q0 9 5 19l94 185q9 18 39 18q36 0 78 -24q48 -27 48 -60z" />
    <glyph glyph-name="mu" unicode="&#xb5;" horiz-adv-x="1218" 
d="M1158 988q0 -74 -58 -74h-47v-390q0 -370 -230 -498q16 -59 159 -59q30 0 94 4q25 5 43.5 -15.5t18.5 -46.5q0 -67 -195 -67q-230 0 -280 134q-21 -2 -43 -2q-153 0 -256 81v-305h108q58 0 58 -87q0 -74 -58 -74h-365q-47 0 -47 76q0 85 47 85h77v704q0 14 -1.5 40.5
t-1.5 40.5l2 -1v374h-76q-47 0 -47 76q0 85 47 85h165q12 0 22 -4q69 -7 69 -56v-376q1 -5 1 -11v-152q0 -114 41 -187q73 -129 215 -129q131 0 203 111l-1 21q-1 21 26 29q25 72 25 211v492q0 57 82 57h145q58 0 58 -87z" />
    <glyph glyph-name="mu" unicode="&#x3bc;" horiz-adv-x="1218" 
d="M1158 988q0 -74 -58 -74h-47v-390q0 -370 -230 -498q16 -59 159 -59q30 0 94 4q25 5 43.5 -15.5t18.5 -46.5q0 -67 -195 -67q-230 0 -280 134q-21 -2 -43 -2q-153 0 -256 81v-305h108q58 0 58 -87q0 -74 -58 -74h-365q-47 0 -47 76q0 85 47 85h77v704q0 14 -1.5 40.5
t-1.5 40.5l2 -1v374h-76q-47 0 -47 76q0 85 47 85h165q12 0 22 -4q69 -7 69 -56v-376q1 -5 1 -11v-152q0 -114 41 -187q73 -129 215 -129q131 0 203 111l-1 21q-1 21 26 29q25 72 25 211v492q0 57 82 57h145q58 0 58 -87z" />
    <glyph glyph-name="paragraph" unicode="&#xb6;" horiz-adv-x="1208" 
d="M1125 -244q0 -71 -62 -71h-129q-4 0 -14 -1h-14q-84 0 -84 59v1550h-123v-1540q0 -69 -91 -69q-28 0 -48 6h-123q-50 0 -50 72q0 82 50 82h77v794q-454 25 -454 406q0 422 523 422h483q38 5 60 -23.5t22 -67.5q0 -82 -82 -82h-64v-1454h61q62 0 62 -83z" />
    <glyph glyph-name="cedilla" unicode="&#xb8;" horiz-adv-x="604" 
d="M544 -231q0 -99 -101 -150q-79 -40 -188 -40q-195 0 -195 67q0 25 19 46t43 16q64 -4 94 -4q161 0 161 75q0 64 -137 67l2 177q0 33 71 33q64 0 63 -33l-3 -107q171 -20 171 -147z" />
    <glyph glyph-name="onesuperior" unicode="&#xb9;" horiz-adv-x="516" 
d="M456 765q0 -42 -44 -42h-285q-34 0 -34 43q0 48 34 48h90v514l-64 -40q-7 -6 -17 -6q-23 0 -48 19q-28 20 -28 42q0 9 7 13l150 91q51 31 82 31t49 -27v-637h64q44 0 44 -49z" />
    <glyph glyph-name="ordmasculine" unicode="&#xba;" horiz-adv-x="801" 
d="M741 1115q0 -167 -85 -272q-92 -115 -255 -115q-165 0 -256 112q-85 103 -85 271q0 170 83 276q91 117 257 117t257 -114q84 -105 84 -275zM568 1120q0 226 -168 226q-167 0 -167 -231q0 -230 167 -230q168 0 168 235z" />
    <glyph glyph-name="guillemotright" unicode="&#xbb;" horiz-adv-x="1067" 
d="M1007 736q0 -51 -59 -86l-331 -365q-16 -12 -32 -12q-36 0 -60 39q-21 34 -21 72q0 59 53 80l190 269l-190 266q-54 29 -54 82q0 37 24 71q26 38 62 38q17 0 28 -12l331 -360q59 -26 59 -82zM564 727q0 -51 -58 -86l-331 -365q-16 -12 -33 -12q-36 0 -59 39
q-21 34 -21 72q0 59 53 80l190 269l-190 266q-55 29 -55 82q0 37 25 71q27 38 62 38q17 0 28 -12l331 -360q58 -26 58 -82z" />
    <glyph glyph-name="onequarter" unicode="&#xbc;" horiz-adv-x="1380" 
d="M1238 1082q0 -30 -18 -52l-920 -725q-17 -11 -36 -11q-40 0 -69 32t-29 73q0 30 26 51l919 725q15 12 36 12q37 0 64 -33.5t27 -71.5zM1320 221q0 -42 -29 -42h-109v-150q0 -37 -51 -37q-49 0 -49 37v150h-298q-28 0 -28 28q0 26 23 62l219 448q21 31 69 27q37 -3 37 -24
l-3 -9l-216 -439h197v176q0 33 49 33q51 0 51 -33v-176h109q29 0 29 -51zM456 765q0 -42 -44 -42h-285q-34 0 -34 43q0 48 34 48h90v514l-64 -40q-7 -6 -17 -6q-23 0 -48 19q-28 20 -28 42q0 9 7 13l150 91q51 31 82 31t49 -27v-637h64q44 0 44 -49z" />
    <glyph glyph-name="onehalf" unicode="&#xbd;" horiz-adv-x="1568" 
d="M1232 1082q0 -30 -19 -52l-919 -725q-18 -11 -37 -11q-40 0 -69 32t-29 73q0 30 26 51l919 725q15 12 36 12q39 0 67 -33q25 -32 25 -72zM456 765q0 -42 -44 -42h-285q-34 0 -34 43q0 48 34 48h90v514l-64 -40q-7 -6 -17 -6q-23 0 -48 19q-28 20 -28 42q0 9 7 13l150 91
q51 31 82 31t49 -27v-637h64q44 0 44 -49zM1448 -10h-543l408 435q2 4 7 8q47 56 47 103q0 59 -51 92q-44 29 -106 29q-64 0 -109 -30q-53 -34 -53 -95v-12q0 -38 -66 -38q-33 0 -47 13q-12 9 -12 32q0 10 2 22v169q0 33 54 33q69 0 69 -33v-4q67 33 165 33q115 0 190 -48
q90 -57 90 -165q0 -47 -31.5 -106t-70.5 -81l-238 -255h232v38q0 32 58 32q65 0 65 -32v-102q0 -38 -60 -38zM1442 -10v15h5l1 -15h-6z" />
    <glyph glyph-name="threequarters" unicode="&#xbe;" horiz-adv-x="1481" 
d="M1339 1082q0 -30 -19 -52l-919 -725q-17 -11 -37 -11q-40 0 -68.5 32t-28.5 73q0 31 25 51l919 725q15 12 37 12q37 0 64 -33.5t27 -71.5zM1421 221q0 -42 -30 -42h-109v-150q0 -37 -50 -37t-50 37v150h-298q-27 0 -27 28q0 26 23 62l219 448q20 31 68 27q37 -3 37 -24
q0 -5 -2 -9l-216 -439h196v176q0 33 50 33q51 0 51 -33l-1 -176h109q30 0 30 -51zM173 730q-5 -26 -60 -26q-51 0 -51 31v116q-2 6 -2 10q0 6 2 12v67q0 25 52 25q59 0 59 -25v-54q43 -118 166 -118q77 0 128 41q56 44 56 119q0 74 -56 114q-49 35 -126 37q-24 0 -51 13
q-32 14 -32 35q0 20 43 20q72 -1 121 27q61 34 61 101q0 119 -146 119q-111 0 -149 -89v-68q0 -31 -60 -31q-51 0 -51 31v205q0 25 52 25q59 0 59 -25v-2q60 32 146 32q159 0 230 -101q32 -46 32 -98q0 -137 -123 -152q54 -5 83 -25q9 -6 42 -45q42 -49 42 -121
q0 -117 -96 -183q-84 -57 -206 -57q-95 0 -165 40z" />
    <glyph glyph-name="questiondown" unicode="&#xbf;" horiz-adv-x="1066" 
d="M636 1134q0 -44 -30.5 -75t-74.5 -31t-74 31t-30 75q0 45 29.5 76t74.5 31t75 -31t30 -76zM819 181q0 60 98 60q81 0 83 -57q8 -12 6 -27q-2 -11 -6 -39v-330q0 -48 -85 -48q-96 0 -96 48v20q-112 -74 -288 -74q-195 0 -326 100q-145 111 -145 300q0 113 66 210
q46 67 155 164q70 62 93 89q74 86 78 238q1 49 88 49q85 0 85 -49v-25q0 -179 -101 -300q-27 -32 -133 -127q-73 -65 -101 -104q-45 -62 -45 -133q0 -116 85 -191q81 -73 198 -73q238 0 291 286v13z" />
    <glyph glyph-name="Agrave" unicode="&#xc0;" horiz-adv-x="1660" 
d="M941 1640q0 -36 -43 -63q-35 -27 -74 -27q-36 0 -51 29l-93 184q-3 11 -4 17q0 29 47 59q40 25 78 25q29 0 39 -19l94 -184q7 -10 7 -21zM1600 73q0 -88 -59 -88h-67l-8 -2q-7 -2 -16 2h-302q-48 0 -48 85q0 96 48 96h85l-148 398h-533l-142 -398h91q60 0 60 -98
q0 -83 -60 -83h-393q-48 0 -48 85q0 96 48 96h100l480 1240q29 59 123 59q102 0 126 -59l511 -1240h93q59 0 59 -93zM1030 722l-217 514l-200 -514h417z" />
    <glyph glyph-name="Aacute" unicode="&#xc1;" horiz-adv-x="1660" 
d="M1002 1778q0 -5 -4 -17l-94 -184q-15 -29 -49 -29q-38 0 -75 26q-42 28 -42 64q0 9 4 21l94 184q10 19 39 19q36 0 78 -25q49 -29 49 -59zM1600 73q0 -88 -59 -88h-67l-8 -2q-7 -2 -16 2h-302q-48 0 -48 85q0 96 48 96h85l-148 398h-533l-142 -398h91q60 0 60 -98
q0 -83 -60 -83h-393q-48 0 -48 85q0 96 48 96h100l480 1240q29 59 123 59q102 0 126 -59l511 -1240h93q59 0 59 -93zM1030 722l-217 514l-200 -514h417z" />
    <glyph glyph-name="Acircumflex" unicode="&#xc2;" horiz-adv-x="1660" 
d="M1156 1581q0 -15 -39 -25q-31 -8 -53 -8q-60 0 -101 35l-153 131l-140 -135q-38 -37 -108 -37q-88 0 -88 31q0 3 2 6l258 272q31 25 76 25t76 -25l270 -268v-2zM1600 73q0 -88 -59 -88h-67l-8 -2q-7 -2 -16 2h-302q-48 0 -48 85q0 96 48 96h85l-148 398h-533l-142 -398
h91q60 0 60 -98q0 -83 -60 -83h-393q-48 0 -48 85q0 96 48 96h100l480 1240q29 59 123 59q102 0 126 -59l511 -1240h93q59 0 59 -93zM1030 722l-217 514l-200 -514h417z" />
    <glyph glyph-name="Atilde" unicode="&#xc3;" horiz-adv-x="1660" 
d="M1131 1710q5 -62 -29 -115q-69 -107 -166 -100q-34 3 -133.5 88t-111.5 86q-57 3 -152 -149q-20 26 -20 73q0 52 26 117q62 116 168 109q37 -3 133 -85q99 -85 113 -89q68 -7 156 161q12 -48 16 -96zM1600 73q0 -88 -59 -88h-67l-8 -2q-7 -2 -16 2h-302q-48 0 -48 85
q0 96 48 96h85l-148 398h-533l-142 -398h91q60 0 60 -98q0 -83 -60 -83h-393q-48 0 -48 85q0 96 48 96h100l480 1240q29 59 123 59q102 0 126 -59l511 -1240h93q59 0 59 -93zM1030 722l-217 514l-200 -514h417z" />
    <glyph glyph-name="Adieresis" unicode="&#xc4;" horiz-adv-x="1660" 
d="M1102 1663q0 -47 -30.5 -80t-77.5 -33t-79 33t-32 80q0 45 33 78t78 33q46 0 77 -32.5t31 -78.5zM752 1663q0 -47 -30.5 -80t-77.5 -33t-79 33t-32 80q0 45 33 78t78 33q46 0 77 -32.5t31 -78.5zM1600 73q0 -88 -59 -88h-67l-8 -2q-7 -2 -16 2h-302q-48 0 -48 85
q0 96 48 96h85l-148 398h-533l-142 -398h91q60 0 60 -98q0 -83 -60 -83h-393q-48 0 -48 85q0 96 48 96h100l480 1240q29 59 123 59q102 0 126 -59l511 -1240h93q59 0 59 -93zM1030 722l-217 514l-200 -514h417z" />
    <glyph glyph-name="Aring" unicode="&#xc5;" horiz-adv-x="1660" 
d="M1600 73q0 -88 -59 -88h-67l-8 -2q-7 -2 -16 2h-302q-48 0 -48 85q0 96 48 96h85l-148 398h-533l-142 -398h91q60 0 60 -98q0 -83 -60 -83h-393q-48 0 -48 85q0 96 48 96h100l480 1240q7 14 17 24q-1 1 0 2q-86 50 -86 167q0 81 55 136t136 55q82 0 136 -56.5t54 -138.5
q0 -107 -84 -159q0 -1 1 -1q13 -12 20 -29l511 -1240h93q59 0 59 -93zM908 1597q0 41 -27.5 70t-68.5 29q-40 0 -68.5 -28.5t-28.5 -68.5q0 -41 28 -71.5t69 -30.5q40 0 68 30t28 70zM1030 722l-217 514l-200 -514h417z" />
    <glyph glyph-name="AE" unicode="&#xc6;" horiz-adv-x="2285" 
d="M2225 81q0 -14 -3 -26v-10q0 -57 -101 -57q-12 0 -22 1h-554q-12 -4 -24 -4h-67l-9 -2q-8 -2 -16 2h-301q-28 0 -28 29q0 20 15 56q40 96 88 96h22q8 4 18 4h45l12 285v109h-528l-308 -398h92q35 0 35 -36q0 -23 -16 -62q-34 -83 -94 -83h-393q-28 0 -28 28q0 21 15 57
q40 96 88 96h100l983 1230q19 24 55 41q59 18 103 18h699q11 1 23 1q5 0 13 -1h21q18 0 31 -8q31 -12 31 -39v-233q0 -57 -101 -57q-80 0 -80 57v107h-536l-1 -449h346v104q0 48 85 48q96 0 96 -48v-353q0 -60 -98 -60q-83 0 -83 60v77h-346l-1 -495h93q12 0 20 -4h425v116
q0 48 85 48q96 0 96 -48v-169q3 -12 3 -28zM1300 722v500l-402 -500h402z" />
    <glyph glyph-name="Ccedilla" unicode="&#xc7;" horiz-adv-x="1374" 
d="M1314 360q0 -21 -6 -34q-153 -342 -538 -351l-1 -59q171 -20 171 -147q0 -99 -101 -150q-80 -40 -188 -40q-195 0 -195 67q0 26 18.5 46.5t43.5 15.5q63 -4 94 -4q161 0 161 75q0 64 -137 67l1 135q-360 43 -499 370q-78 184 -78 393q0 474 337 659q161 88 355 88
q214 0 356 -98v21q0 48 85 48q96 0 96 -48v-393q0 -60 -98 -60q-83 0 -83 60v83q-5 6 -8 12q-110 209 -352 209q-159 0 -273 -74q-120 -77 -169 -224q-46 -138 -46 -282q0 -401 224 -535q115 -69 249 -69q289 0 394 257q19 69 78 69q42 0 75.5 -32.5t33.5 -74.5z" />
    <glyph glyph-name="Egrave" unicode="&#xc8;" horiz-adv-x="1300" 
d="M847 1640q0 -36 -43 -63q-35 -27 -74 -27q-37 0 -51 29l-92 184q-3 11 -4 17q0 29 47 59q40 25 78 25q31 0 41 -19l94 -184q4 -12 4 -21zM1240 92q0 -14 -3 -26v-10q0 -57 -101 -57q-12 0 -22 1h-1006q-48 0 -48 85q0 96 48 96h57v1099h-57q-48 0 -48 85q0 96 48 96h57v5
h953q11 1 23 1q5 0 13 -1h21q18 0 31 -8q31 -12 31 -39v-233q0 -57 -101 -57q-80 0 -80 57v107h-697v-449h506v104q0 48 85 48q96 0 96 -48v-353q0 -60 -98 -60q-83 0 -83 60v77h-506v-499h697v116q0 48 85 48q96 0 96 -48v-169q3 -12 3 -28z" />
    <glyph glyph-name="Eacute" unicode="&#xc9;" horiz-adv-x="1300" 
d="M902 1778q0 -5 -4 -17l-94 -184q-15 -29 -49 -29q-38 0 -75 26q-42 28 -42 64q0 9 4 21l94 184q10 19 39 19q36 0 78 -25q49 -29 49 -59zM1240 92q0 -14 -3 -26v-10q0 -57 -101 -57q-12 0 -22 1h-1006q-48 0 -48 85q0 96 48 96h57v1099h-57q-48 0 -48 85q0 96 48 96h57v5
h953q11 1 23 1q5 0 13 -1h21q18 0 31 -8q31 -12 31 -39v-233q0 -57 -101 -57q-80 0 -80 57v107h-697v-449h506v104q0 48 85 48q96 0 96 -48v-353q0 -60 -98 -60q-83 0 -83 60v77h-506v-499h697v116q0 48 85 48q96 0 96 -48v-169q3 -12 3 -28z" />
    <glyph glyph-name="Ecircumflex" unicode="&#xca;" horiz-adv-x="1300" 
d="M1068 1581q0 -15 -39 -25q-32 -8 -53 -8q-56 0 -98 35l-156 131l-137 -135q-38 -37 -111 -37q-88 0 -88 31q0 3 2 6l258 272q31 25 76 25q43 0 78 -25zM1240 92q0 -14 -3 -26v-10q0 -57 -101 -57q-12 0 -22 1h-1006q-48 0 -48 85q0 96 48 96h57v1099h-57q-48 0 -48 85
q0 96 48 96h57v5h953q11 1 23 1q5 0 13 -1h21q18 0 31 -8q31 -12 31 -39v-233q0 -57 -101 -57q-80 0 -80 57v107h-697v-449h506v104q0 48 85 48q96 0 96 -48v-353q0 -60 -98 -60q-83 0 -83 60v77h-506v-499h697v116q0 48 85 48q96 0 96 -48v-169q3 -12 3 -28z" />
    <glyph glyph-name="Edieresis" unicode="&#xcb;" horiz-adv-x="1300" 
d="M997 1663q0 -45 -32 -79t-77 -34q-47 0 -79 33t-32 80q0 45 33 78t78 33t77 -33t32 -78zM646 1663q0 -47 -30.5 -80t-77.5 -33t-79 33t-32 80q0 45 33 78t78 33q46 0 77 -32.5t31 -78.5zM1240 92q0 -14 -3 -26v-10q0 -57 -101 -57q-12 0 -22 1h-1006q-48 0 -48 85
q0 96 48 96h57v1099h-57q-48 0 -48 85q0 96 48 96h57v5h953q11 1 23 1q5 0 13 -1h21q18 0 31 -8q31 -12 31 -39v-233q0 -57 -101 -57q-80 0 -80 57v107h-697v-449h506v104q0 48 85 48q96 0 96 -48v-353q0 -60 -98 -60q-83 0 -83 60v77h-506v-499h697v116q0 48 85 48
q96 0 96 -48v-169q3 -12 3 -28z" />
    <glyph glyph-name="Igrave" unicode="&#xcc;" horiz-adv-x="622" 
d="M447 1640q0 -36 -41 -64q-37 -26 -75 -26q-34 0 -49 29l-95 184q-3 11 -4 17q0 29 47 59q40 25 78 25q31 0 41 -19l94 -184q4 -12 4 -21zM562 60q0 -83 -60 -83h-393q-49 0 -49 85q0 96 49 96h105v1139h-105q-49 0 -49 85q0 96 49 96h194q9 1 18 1q10 0 19 -1h162
q60 0 60 -98q0 -83 -60 -83h-94v-1139h94q60 0 60 -98z" />
    <glyph glyph-name="Iacute" unicode="&#xcd;" horiz-adv-x="622" 
d="M472 1778q0 -5 -4 -17l-94 -184q-15 -29 -49 -29q-39 0 -74 27q-43 27 -43 63q0 9 6 21l92 184q9 19 39 19q37 0 79 -24q48 -26 48 -60zM562 60q0 -83 -60 -83h-393q-49 0 -49 85q0 96 49 96h105v1139h-105q-49 0 -49 85q0 96 49 96h194q9 1 18 1q10 0 19 -1h162
q60 0 60 -98q0 -83 -60 -83h-94v-1139h94q60 0 60 -98z" />
    <glyph glyph-name="Icircumflex" unicode="&#xce;" horiz-adv-x="802" 
d="M742 1581q0 -14 -41 -25q-29 -8 -51 -8q-60 0 -101 35l-155 131l-138 -135q-38 -37 -108 -37q-88 0 -88 31q0 3 2 6l256 272q30 25 76 25q43 0 77 -25l269 -268q2 0 2 -2zM631 60q0 -83 -60 -83h-393q-49 0 -49 85q0 96 49 96h105v1139h-105q-49 0 -49 85q0 96 49 96h194
q9 1 18 1q10 0 19 -1h162q60 0 60 -98q0 -83 -60 -83h-94v-1139h94q60 0 60 -98z" />
    <glyph glyph-name="Idieresis" unicode="&#xcf;" horiz-adv-x="689" 
d="M629 1663q0 -46 -31.5 -79.5t-77.5 -33.5q-47 0 -78.5 33t-31.5 80q0 46 32 78.5t78 32.5t77.5 -32.5t31.5 -78.5zM279 1663q0 -45 -32 -79t-77 -34q-47 0 -78.5 33t-31.5 80q0 46 32 78.5t78 32.5q45 0 77 -33t32 -78zM590 60q0 -83 -60 -83h-393q-49 0 -49 85
q0 96 49 96h105v1139h-105q-49 0 -49 85q0 96 49 96h194q9 1 18 1q10 0 19 -1h162q60 0 60 -98q0 -83 -60 -83h-94v-1139h94q60 0 60 -98z" />
    <glyph glyph-name="Eth" unicode="&#xd0;" horiz-adv-x="1433" 
d="M1373 741q0 -264 -97 -444q-115 -215 -350 -272q-103 -25 -236 -25h-576q-48 0 -48 85q0 96 48 96h67v459h-73q-48 0 -48 85q0 96 48 96h73v459h-67q-48 0 -48 85q0 101 50 101h550q171 0 261 -21q280 -65 389 -355q57 -151 57 -349zM1173 744q0 419 -259 519
q-78 30 -251 30h-288v-472h356q59 0 59 -93q0 -88 -59 -88h-356v-467h293q256 0 359 103q146 146 146 468z" />
    <glyph glyph-name="Ntilde" unicode="&#xd1;" horiz-adv-x="1501" 
d="M1048 1710q5 -62 -29 -115q-69 -107 -166 -100q-34 3 -133.5 88t-111.5 86q-57 3 -152 -149q-20 26 -20 73q0 52 26 117q62 116 168 109q37 -3 133 -85q99 -85 113 -89q68 -7 156 161q12 -48 16 -96zM1441 60q0 -83 -60 -83h-83q-96 0 -244 199l-688 926v-944h135
q60 0 60 -98q0 -83 -60 -83h-393q-48 0 -48 85q0 96 48 96h72v1139h-72q-48 0 -48 85q0 96 48 96h123q12 0 23 -3q84 -11 173 -131l722 -979v942h-161q-48 0 -48 85q0 96 48 96h393q60 0 60 -98q0 -83 -60 -83h-46v-1149h46q60 0 60 -98z" />
    <glyph glyph-name="Ograve" unicode="&#xd2;" horiz-adv-x="1523" 
d="M847 1640q0 -36 -42 -64q-37 -26 -75 -26q-34 0 -49 29l-94 184q-3 11 -4 17q0 29 47 59q40 25 77 25q31 0 41 -19l95 -184q4 -12 4 -21zM1463 731q0 -461 -336 -660q-162 -96 -364 -96q-203 0 -365 96q-166 98 -254 277q-84 170 -84 367q0 347 175 555q188 223 528 223
q198 0 360 -94q168 -97 253 -270q87 -177 87 -398zM1262 731q0 372 -235 520q-118 74 -262 74q-262 0 -391 -183q-113 -159 -113 -431q0 -249 123 -403q134 -167 377 -167q251 0 383 175q118 156 118 415z" />
    <glyph glyph-name="Oacute" unicode="&#xd3;" horiz-adv-x="1523" 
d="M951 1778q0 -5 -4 -17l-94 -184q-15 -29 -49 -29q-39 0 -74 27q-43 27 -43 63q0 9 4 21l94 184q10 19 39 19q36 0 78 -25q49 -29 49 -59zM1463 731q0 -461 -336 -660q-162 -96 -364 -96q-203 0 -365 96q-166 98 -254 277q-84 170 -84 367q0 347 175 555q188 223 528 223
q198 0 360 -94q168 -97 253 -270q87 -177 87 -398zM1262 731q0 372 -235 520q-118 74 -262 74q-262 0 -391 -183q-113 -159 -113 -431q0 -249 123 -403q134 -167 377 -167q251 0 383 175q118 156 118 415z" />
    <glyph glyph-name="Ocircumflex" unicode="&#xd4;" horiz-adv-x="1523" 
d="M1115 1581q0 -15 -38 -25q-30 -8 -52 -8q-58 0 -100 35l-156 131l-137 -135q-38 -37 -111 -37q-88 0 -88 31q0 3 2 6l258 272q31 25 76 25q43 0 78 -25zM1463 731q0 -461 -336 -660q-162 -96 -364 -96q-203 0 -365 96q-166 98 -254 277q-84 170 -84 367q0 347 175 555
q188 223 528 223q198 0 360 -94q168 -97 253 -270q87 -177 87 -398zM1262 731q0 372 -235 520q-118 74 -262 74q-262 0 -391 -183q-113 -159 -113 -431q0 -249 123 -403q134 -167 377 -167q251 0 383 175q118 156 118 415z" />
    <glyph glyph-name="Otilde" unicode="&#xd5;" horiz-adv-x="1523" 
d="M1064 1710q6 -58 -31 -115q-69 -107 -166 -100q-34 3 -133 88t-113 86q-56 3 -149 -149q-23 28 -23 73q0 61 27 117q56 117 168 109q37 -3 133 -85q99 -85 113 -89q67 -7 155 161q14 -48 19 -96zM1463 731q0 -461 -336 -660q-162 -96 -364 -96q-203 0 -365 96
q-166 98 -254 277q-84 170 -84 367q0 347 175 555q188 223 528 223q198 0 360 -94q168 -97 253 -270q87 -177 87 -398zM1262 731q0 372 -235 520q-118 74 -262 74q-262 0 -391 -183q-113 -159 -113 -431q0 -249 123 -403q134 -167 377 -167q251 0 383 175q118 156 118 415z
" />
    <glyph glyph-name="Odieresis" unicode="&#xd6;" horiz-adv-x="1523" 
d="M1054 1663q0 -45 -32 -79t-77 -34q-47 0 -79 33t-32 80q0 45 33 78t78 33t77 -33t32 -78zM703 1663q0 -47 -30.5 -80t-77.5 -33t-79 33t-32 80q0 45 33 78t78 33q46 0 77 -32.5t31 -78.5zM1463 731q0 -461 -336 -660q-162 -96 -364 -96q-203 0 -365 96q-166 98 -254 277
q-84 170 -84 367q0 347 175 555q188 223 528 223q198 0 360 -94q168 -97 253 -270q87 -177 87 -398zM1262 731q0 372 -235 520q-118 74 -262 74q-262 0 -391 -183q-113 -159 -113 -431q0 -249 123 -403q134 -167 377 -167q251 0 383 175q118 156 118 415z" />
    <glyph glyph-name="multiply" unicode="&#xd7;" horiz-adv-x="903" 
d="M843 439q0 -36 -35.5 -70.5t-71.5 -34.5q-14 0 -23 9l-263 263l-261 -261q-12 -12 -29 -12q-36 0 -67.5 35.5t-31.5 71.5q0 15 9 24l261 261l-261 261q-10 10 -10 26q0 36 33.5 70t69.5 34q17 0 27 -10l261 -261l261 261q8 8 20 8q34 0 71 -35.5t37 -69.5q0 -13 -9 -22
l-261 -261l263 -263q10 -10 10 -24z" />
    <glyph glyph-name="Oslash" unicode="&#xd8;" horiz-adv-x="1522" 
d="M1462 731q0 -212 -82 -382q-90 -188 -263 -283q-165 -91 -356 -91q-97 0 -185 22l-32 -88q-18 -37 -85 -37q-71 0 -71 30q0 4 1 7l50 139q-183 92 -284 278q-95 174 -95 388q0 347 174 555q187 223 528 223q96 0 182 -21l28 77q17 46 80 46q75 0 75 -39q0 -4 -1 -7
l-45 -127q192 -94 291 -287q90 -175 90 -403zM1262 732q0 362 -237 520l-3 2l-390 -1099q60 -14 128 -14q251 0 383 176q119 157 119 415zM887 1310q-59 15 -124 15q-260 0 -390 -184q-113 -159 -113 -430q0 -243 127 -400q48 -59 110 -99z" />
    <glyph glyph-name="Ugrave" unicode="&#xd9;" 
d="M847 1640q0 -36 -43 -63q-35 -27 -73 -27t-52 29l-92 184q-3 11 -4 17q0 29 47 59q40 25 78 25q32 0 41 -19l92 -184q6 -12 6 -21zM1451 1370q0 -83 -60 -83h-53v-668q0 -202 -38 -317q-108 -327 -535 -327q-409 0 -524 277q-56 135 -56 367v668h-77q-48 0 -48 85
q0 96 48 96h123q19 5 44 5q20 0 38 -5h188q60 0 60 -98q0 -83 -60 -83h-122v-667q0 -160 21 -237q64 -233 348 -233q236 0 323 120q73 101 73 350v667h-146q-48 0 -48 85q0 96 48 96h393q60 0 60 -98z" />
    <glyph glyph-name="Uacute" unicode="&#xda;" 
d="M950 1778q0 -5 -4 -17l-95 -184q-15 -29 -49 -29q-38 0 -75 26q-41 28 -41 64q0 9 4 21l94 184q10 19 39 19q36 0 78 -25q49 -29 49 -59zM1451 1370q0 -83 -60 -83h-53v-668q0 -202 -38 -317q-108 -327 -535 -327q-409 0 -524 277q-56 135 -56 367v668h-77q-48 0 -48 85
q0 96 48 96h123q19 5 44 5q20 0 38 -5h188q60 0 60 -98q0 -83 -60 -83h-122v-667q0 -160 21 -237q64 -233 348 -233q236 0 323 120q73 101 73 350v667h-146q-48 0 -48 85q0 96 48 96h393q60 0 60 -98z" />
    <glyph glyph-name="Ucircumflex" unicode="&#xdb;" 
d="M1114 1581q0 -33 -93 -33q-59 0 -100 35l-154 131l-139 -135q-38 -37 -108 -37q-88 0 -88 31q0 3 2 6l258 272q30 25 75 25t76 -25l271 -268v-2zM1451 1370q0 -83 -60 -83h-53v-668q0 -202 -38 -317q-108 -327 -535 -327q-409 0 -524 277q-56 135 -56 367v668h-77
q-48 0 -48 85q0 96 48 96h123q19 5 44 5q20 0 38 -5h188q60 0 60 -98q0 -83 -60 -83h-122v-667q0 -160 21 -237q64 -233 348 -233q236 0 323 120q73 101 73 350v667h-146q-48 0 -48 85q0 96 48 96h393q60 0 60 -98z" />
    <glyph glyph-name="Udieresis" unicode="&#xdc;" 
d="M1034 1663q0 -45 -32 -79t-77 -34q-47 0 -78.5 33t-31.5 80q0 46 32 78.5t78 32.5q45 0 77 -33t32 -78zM683 1663q0 -47 -30.5 -80t-77.5 -33t-79 33t-32 80q0 45 33 78t78 33q46 0 77 -32.5t31 -78.5zM1451 1370q0 -83 -60 -83h-53v-668q0 -202 -38 -317
q-108 -327 -535 -327q-409 0 -524 277q-56 135 -56 367v668h-77q-48 0 -48 85q0 96 48 96h123q19 5 44 5q20 0 38 -5h188q60 0 60 -98q0 -83 -60 -83h-122v-667q0 -160 21 -237q64 -233 348 -233q236 0 323 120q73 101 73 350v667h-146q-48 0 -48 85q0 96 48 96h393
q60 0 60 -98z" />
    <glyph glyph-name="Yacute" unicode="&#xdd;" 
d="M952 1778q0 -5 -4 -17l-94 -184q-15 -29 -49 -29q-38 0 -75 26q-42 28 -42 64q0 9 4 21l94 184q10 19 39 19q36 0 78 -25q49 -29 49 -59zM1451 1420q0 -83 -60 -83h-70l-472 -736v-443h96q65 0 65 -99q0 -82 -65 -82h-393q-48 0 -48 85q0 96 48 96h103v443l-459 736h-88
q-48 0 -48 85q0 96 48 96h393q60 0 60 -98q0 -83 -60 -83h-71l323 -539l342 539h-97q-48 0 -48 85q0 96 48 96h393q60 0 60 -98z" />
    <glyph glyph-name="Thorn" unicode="&#xde;" horiz-adv-x="1266" 
d="M1006 737q0 202 -148 244q-76 21 -182 14l-285 -20v-484l289 -20q29 -2 44 -2q282 0 282 268zM561 1379q0 -83 -60 -83h-110v-148l269 20q27 2 55 2q79 0 169 -16q192 -34 278 -211q44 -91 44 -200q0 -447 -460 -447q-40 0 -69 2l-286 20v-185h110q60 0 60 -98
q0 -83 -60 -83h-393q-48 0 -48 85q0 96 48 96h89v1163h-89q-48 0 -48 85q0 96 48 96h393q60 0 60 -98z" />
    <glyph glyph-name="germandbls" unicode="&#xdf;" horiz-adv-x="1522" 
d="M1462 731q0 -212 -82 -382q-90 -188 -263 -283q-165 -91 -356 -91q-203 0 -364 96q-166 98 -253 277q-84 172 -84 366q0 347 174 555q187 223 528 223q201 0 361 -93q165 -95 252 -271.5t87 -396.5zM1262 732q0 371 -237 520q-116 73 -262 73q-260 0 -390 -184
q-113 -159 -113 -430q0 -249 123 -403q134 -167 377 -167q251 0 383 176q119 157 119 415zM1104 914q0 -258 -314 -258h-156v-288q-6 -48 -56 -48q-23 0 -47 13q-28 15 -28 36v791h278q110 0 170 -20q153 -51 153 -226zM969 911q0 44 -21 77q-33 52 -159 52h-155v-263h158
q177 0 177 134z" />
    <glyph glyph-name="agrave" unicode="&#xe0;" horiz-adv-x="1197" 
d="M674 1280q0 -38 -41 -65q-36 -25 -76 -25q-38 0 -51 27l-92 184q-3 10 -4 16q0 31 47 60q39 24 78 24q32 0 41 -18l94 -185q4 -12 4 -18zM1137 50q0 -83 -60 -83h-183q-15 0 -25 8q-55 6 -55 45v114q-101 -158 -297 -158q-132 0 -238 73q-103 70 -160 193
q-59 127 -59 288q0 349 212 487q106 69 237 69q187 0 293 -146v116q0 50 87 50q92 0 92 -50v-908h96q60 0 60 -98zM817 515q0 171 -59 281q-76 141 -232 141q-152 0 -224 -135q-57 -106 -57 -272q0 -160 63 -271q77 -135 226 -135q147 0 222 128q61 105 61 263z" />
    <glyph glyph-name="aacute" unicode="&#xe1;" horiz-adv-x="1197" 
d="M766 1415q0 -5 -4 -16l-94 -185q-13 -26 -49 -26q-40 0 -76 25q-41 27 -41 65q0 6 4 18l94 185q9 18 39 18q37 0 78 -24q49 -29 49 -60zM766 1415q0 -5 -4 -16l-94 -185q-13 -26 -49 -26q-40 0 -76 25q-41 27 -41 65q0 6 4 18l94 185q9 18 39 18q37 0 78 -24
q49 -29 49 -60zM1137 50q0 -83 -60 -83h-183q-15 0 -25 8q-55 6 -55 45v114q-101 -158 -297 -158q-132 0 -238 73q-103 70 -160 193q-59 127 -59 288q0 349 212 487q106 69 237 69q187 0 293 -146v116q0 50 87 50q92 0 92 -50v-908h96q60 0 60 -98zM817 515q0 171 -59 281
q-76 141 -232 141q-152 0 -224 -135q-57 -106 -57 -272q0 -160 63 -271q77 -135 226 -135q147 0 222 128q61 105 61 263z" />
    <glyph glyph-name="acircumflex" unicode="&#xe2;" horiz-adv-x="1197" 
d="M910 1219q0 -33 -93 -33q-57 0 -100 37l-154 131l-139 -137q-38 -37 -108 -37q-88 0 -88 30q0 4 2 7l258 272q30 24 75 24t76 -24l271 -266v-4zM1137 50q0 -83 -60 -83h-183q-15 0 -25 8q-55 6 -55 45v114q-101 -158 -297 -158q-132 0 -238 73q-103 70 -160 193
q-59 127 -59 288q0 349 212 487q106 69 237 69q187 0 293 -146v116q0 50 87 50q92 0 92 -50v-908h96q60 0 60 -98zM817 515q0 171 -59 281q-76 141 -232 141q-152 0 -224 -135q-57 -106 -57 -272q0 -160 63 -271q77 -135 226 -135q147 0 222 128q61 105 61 263z" />
    <glyph glyph-name="atilde" unicode="&#xe3;" horiz-adv-x="1197" 
d="M852 1372q5 -64 -28 -115q-69 -107 -166 -100q-33 3 -132.5 88t-113.5 86q-56 3 -152 -149q-20 26 -20 73q0 52 26 117q62 116 168 109q39 -3 133 -84q100 -86 113 -90q68 -7 156 161q12 -50 16 -96zM1137 50q0 -83 -60 -83h-183q-15 0 -25 8q-55 6 -55 45v114
q-101 -158 -297 -158q-132 0 -238 73q-103 70 -160 193q-59 127 -59 288q0 349 212 487q106 69 237 69q187 0 293 -146v116q0 50 87 50q92 0 92 -50v-908h96q60 0 60 -98zM817 515q0 171 -59 281q-76 141 -232 141q-152 0 -224 -135q-57 -106 -57 -272q0 -160 63 -271
q77 -135 226 -135q147 0 222 128q61 105 61 263z" />
    <glyph glyph-name="adieresis" unicode="&#xe4;" horiz-adv-x="1197" 
d="M828 1376q0 -46 -31.5 -79t-77.5 -33q-47 0 -79 32.5t-32 79.5q0 46 32.5 78.5t78.5 32.5q45 0 77 -33t32 -78zM477 1376q0 -47 -30.5 -79.5t-77.5 -32.5t-79 32.5t-32 79.5q0 45 33 78t78 33q46 0 77 -32.5t31 -78.5zM1137 50q0 -83 -60 -83h-183q-15 0 -25 8
q-55 6 -55 45v114q-101 -158 -297 -158q-132 0 -238 73q-103 70 -160 193q-59 127 -59 288q0 349 212 487q106 69 237 69q187 0 293 -146v116q0 50 87 50q92 0 92 -50v-908h96q60 0 60 -98zM817 515q0 171 -59 281q-76 141 -232 141q-152 0 -224 -135q-57 -106 -57 -272
q0 -160 63 -271q77 -135 226 -135q147 0 222 128q61 105 61 263z" />
    <glyph glyph-name="aring" unicode="&#xe5;" horiz-adv-x="1197" 
d="M713 1333q0 -82 -54.5 -137t-136.5 -55q-87 0 -138.5 54t-51.5 142q0 81 54.5 136t135.5 55q82 0 136.5 -56t54.5 -139zM621 1335q0 41 -27.5 70t-68.5 29q-40 0 -68.5 -28.5t-28.5 -68.5q0 -41 28 -70.5t69 -29.5q40 0 68 29t28 69zM1137 50q0 -83 -60 -83h-183
q-15 0 -25 8q-55 6 -55 45v114q-101 -158 -297 -158q-132 0 -238 73q-103 70 -160 193q-59 127 -59 288q0 349 212 487q106 69 237 69q187 0 293 -146v116q0 50 87 50q92 0 92 -50v-908h96q60 0 60 -98zM817 515q0 171 -59 281q-76 141 -232 141q-152 0 -224 -135
q-57 -106 -57 -272q0 -160 63 -271q77 -135 226 -135q147 0 222 128q61 105 61 263z" />
    <glyph glyph-name="ae" unicode="&#xe6;" horiz-adv-x="1832" 
d="M814 447q-4 41 -4 85q0 37 3 71q-12 113 -55 193q-76 141 -232 141q-152 0 -224 -135q-57 -106 -57 -272q0 -160 63 -271q77 -135 226 -135q147 0 222 128q47 80 58 195zM1772 559q0 -5 -1.5 -15t-1.5 -15l-770 -46q9 -152 86 -245q85 -104 232 -104q198 0 265 187
q25 45 95 45q93 0 93 -55q0 -6 -2 -13q-42 -155 -168 -236q-117 -76 -284 -76q-203 0 -330 106q-8 -120 -90 -120q-13 0 -27 3q-55 6 -55 45v114q-101 -158 -297 -158q-132 0 -238 73q-103 70 -160 193q-59 127 -59 288q0 349 212 487q106 69 237 69q187 0 293 -146v116
q0 50 87 50q92 0 92 -50v-73q125 113 325 113q213 0 348 -145q63 -68 89 -153q17 -57 29 -239zM1589 678q-10 108 -58 166q-86 104 -223 104q-132 0 -214 -88q-79 -83 -88 -217z" />
    <glyph glyph-name="ccedilla" unicode="&#xe7;" horiz-adv-x="1015" 
d="M780 -231q0 -99 -101 -150q-79 -40 -188 -40q-195 0 -195 67q0 25 19 46t43 16q64 -4 94 -4q161 0 161 75q0 64 -137 67l2 133q-211 22 -320 183q-98 143 -98 365q0 367 231 495q116 64 253 64q117 0 204 -38v5q0 48 78 48q88 0 88 -48v-343q0 -60 -90 -60q-76 0 -76 60
v130q-63 98 -197 98q-306 0 -306 -406q0 -408 296 -408q191 0 249 183q21 34 59 34t70 -25q36 -27 36 -63q0 -16 -11 -28q-103 -218 -333 -245l-2 -64q171 -20 171 -147z" />
    <glyph glyph-name="egrave" unicode="&#xe8;" horiz-adv-x="1080" 
d="M639 1280q0 -38 -40 -65q-36 -25 -76 -25q-39 0 -52 27l-92 184q-3 10 -4 16q0 31 47 60q39 24 78 24q30 0 39 -18l94 -185q6 -12 6 -18zM1020 549q0 -5 -1 -16t-1 -15l-770 -45q8 -154 85 -246q84 -102 233 -102q198 0 266 186q24 45 94 45q92 0 92 -55q0 -8 -2 -12
q-39 -154 -167 -237q-118 -77 -283 -77q-246 0 -379 153q-127 145 -127 394q0 251 120 400q130 163 375 163q215 0 349 -145q63 -69 88 -152q15 -52 28 -239zM838 668q-8 106 -57 166q-85 104 -224 104q-133 0 -215 -87q-79 -83 -88 -218z" />
    <glyph glyph-name="eacute" unicode="&#xe9;" horiz-adv-x="1080" 
d="M762 1415q0 -5 -4 -16l-94 -185q-13 -26 -49 -26q-42 0 -77 24q-40 26 -40 66q0 6 4 18l94 185q9 18 39 18q37 0 78 -24q49 -29 49 -60zM1020 549q0 -5 -1 -16t-1 -15l-770 -45q8 -154 85 -246q84 -102 233 -102q198 0 266 186q24 45 94 45q92 0 92 -55q0 -8 -2 -12
q-39 -154 -167 -237q-118 -77 -283 -77q-246 0 -379 153q-127 145 -127 394q0 251 120 400q130 163 375 163q215 0 349 -145q63 -69 88 -152q15 -52 28 -239zM838 668q-8 106 -57 166q-85 104 -224 104q-133 0 -215 -87q-79 -83 -88 -218z" />
    <glyph glyph-name="ecircumflex" unicode="&#xea;" horiz-adv-x="1080" 
d="M906 1219q0 -33 -93 -33q-57 0 -100 37l-154 131l-139 -137q-38 -37 -108 -37q-88 0 -88 30q0 4 2 7l258 272q30 24 75 24q46 0 76 -24l271 -266v-4zM1020 549q0 -5 -1 -16t-1 -15l-770 -45q8 -154 85 -246q84 -102 233 -102q198 0 266 186q24 45 94 45q92 0 92 -55
q0 -8 -2 -12q-39 -154 -167 -237q-118 -77 -283 -77q-246 0 -379 153q-127 145 -127 394q0 251 120 400q130 163 375 163q215 0 349 -145q63 -69 88 -152q15 -52 28 -239zM838 668q-8 106 -57 166q-85 104 -224 104q-133 0 -215 -87q-79 -83 -88 -218z" />
    <glyph glyph-name="edieresis" unicode="&#xeb;" horiz-adv-x="1080" 
d="M824 1376q0 -46 -31.5 -79t-77.5 -33q-47 0 -78.5 32.5t-31.5 79.5q0 46 32 78.5t78 32.5q45 0 77 -33t32 -78zM473 1376q0 -46 -31 -79t-77 -33q-47 0 -79 32.5t-32 79.5q0 45 33 78t78 33t76.5 -33t31.5 -78zM1020 549q0 -5 -1 -16t-1 -15l-770 -45q8 -154 85 -246
q84 -102 233 -102q198 0 266 186q24 45 94 45q92 0 92 -55q0 -8 -2 -12q-39 -154 -167 -237q-118 -77 -283 -77q-246 0 -379 153q-127 145 -127 394q0 251 120 400q130 163 375 163q215 0 349 -145q63 -69 88 -152q15 -52 28 -239zM838 668q-8 106 -57 166q-85 104 -224 104
q-133 0 -215 -87q-79 -83 -88 -218z" />
    <glyph glyph-name="igrave" unicode="&#xec;" horiz-adv-x="627" 
d="M416 1280q0 -39 -40 -66q-35 -24 -76 -24q-35 0 -49 27l-95 184q-3 10 -4 16q0 31 47 60q39 24 78 24q32 0 41 -18l94 -185q4 -12 4 -18zM567 59q0 -82 -66 -82h-393q-48 0 -48 85q0 96 48 96h114v732h-83q-48 0 -48 85q0 96 48 96h163q10 0 18 -2q82 -3 82 -57v-854h99
q66 0 66 -99z" />
    <glyph glyph-name="iacute" unicode="&#xed;" horiz-adv-x="627" 
d="M467 1415q0 -5 -4 -16l-94 -185q-13 -26 -50 -26q-40 0 -76 25q-40 27 -40 65q0 6 6 18l92 185q9 18 41 18q37 0 78 -24q47 -26 47 -60zM567 59q0 -82 -66 -82h-393q-48 0 -48 85q0 96 48 96h114v732h-83q-48 0 -48 85q0 96 48 96h163q10 0 18 -2q82 -3 82 -57v-854h99
q66 0 66 -99z" />
    <glyph glyph-name="icircumflex" unicode="&#xee;" horiz-adv-x="688" 
d="M628 1215q0 -33 -77 -33q-47 0 -83 37l-129 132l-115 -139q-30 -36 -91 -36q-73 0 -73 30q0 4 2 6l214 277q26 25 63 25t64 -25l224 -270q1 -2 1 -4zM586 59q0 -82 -66 -82h-393q-48 0 -48 85q0 96 48 96h114v732h-83q-48 0 -48 85q0 96 48 96h163q10 0 18 -2
q82 -3 82 -57v-854h99q66 0 66 -99z" />
    <glyph glyph-name="idieresis" unicode="&#xef;" horiz-adv-x="689" 
d="M629 1376q0 -47 -32 -79.5t-79 -32.5t-77.5 32.5t-30.5 79.5q0 45 31.5 78t76.5 33q46 0 78.5 -32.5t32.5 -78.5zM279 1376q0 -47 -32 -79.5t-79 -32.5q-46 0 -77 33t-31 79q0 45 31.5 78t76.5 33q46 0 78.5 -32.5t32.5 -78.5zM604 59q0 -82 -66 -82h-393q-48 0 -48 85
q0 96 48 96h114v732h-83q-48 0 -48 85q0 96 48 96h163q10 0 18 -2q82 -3 82 -57v-854h99q66 0 66 -99z" />
    <glyph glyph-name="eth" unicode="&#xf0;" horiz-adv-x="1081" 
d="M1021 550q0 -194 -85 -346q-122 -217 -417 -217q-283 0 -404 252q-55 114 -55 249q0 203 113 335q120 140 320 140q146 0 249 -74l-154 272l-178 -99q-14 -6 -28 -6q-37 0 -64 34t-27 72q0 41 34 60l174 96l-34 60q-9 16 -9 32q0 37 33.5 64t71.5 27q37 0 59 -30l38 -65
l181 101q14 8 29 8q35 0 60 -36q23 -32 23 -69q0 -39 -27 -63l-176 -97l170 -294q38 -65 88 -258l-2 -2q17 -69 17 -146zM821 487q0 136 -77 224q-81 93 -215 93q-139 0 -215 -97q-70 -88 -70 -230q0 -139 68 -234q76 -108 210 -108q77 0 149 45q150 94 150 307z" />
    <glyph glyph-name="ntilde" unicode="&#xf1;" horiz-adv-x="1231" 
d="M938 1372q5 -62 -29 -115q-69 -107 -166 -100q-34 3 -133.5 88t-111.5 86q-57 3 -152 -149q-20 26 -20 73q0 52 26 117q62 116 168 109q37 -3 133 -85q99 -85 113 -89q68 -7 156 161q12 -48 16 -96zM521 61q0 -83 -60 -83h-353q-48 0 -48 85q0 96 48 96h68v356h-2
q0 237 98 385q116 175 341 175q122 0 226 -66q207 -131 207 -484v-366h65q60 0 60 -98q0 -83 -60 -83h-160q-85 0 -85 63v482q0 170 -38 240q-72 133 -215 133q-142 0 -215 -130q-42 -75 -42 -234v-373h105q60 0 60 -98z" />
    <glyph glyph-name="ograve" unicode="&#xf2;" horiz-adv-x="1115" 
d="M647 1280q0 -38 -40 -65q-36 -25 -76 -25q-39 0 -52 27l-92 184q-3 10 -4 16q0 31 47 60q39 24 78 24q30 0 39 -18l94 -185q6 -12 6 -18zM1055 547q0 -375 -240 -506q-121 -66 -258 -66q-248 0 -377 157q-120 145 -120 398q0 297 163 439q133 116 334 116q242 0 374 -150
q124 -142 124 -388zM871 537q0 166 -72 274q-84 127 -242 127q-162 0 -243 -129q-68 -107 -68 -279t68 -278q81 -127 243 -127q165 0 246 130q68 108 68 282z" />
    <glyph glyph-name="oacute" unicode="&#xf3;" horiz-adv-x="1115" 
d="M701 1415q0 -5 -4 -16l-95 -185q-13 -26 -49 -26q-42 0 -77 24q-40 26 -40 66q0 8 5 18l94 185q9 18 39 18q36 0 77 -24q50 -29 50 -60zM1055 547q0 -375 -240 -506q-121 -66 -258 -66q-248 0 -377 157q-120 145 -120 398q0 297 163 439q133 116 334 116q242 0 374 -150
q124 -142 124 -388zM871 537q0 166 -72 274q-84 127 -242 127q-162 0 -243 -129q-68 -107 -68 -279t68 -278q81 -127 243 -127q165 0 246 130q68 108 68 282z" />
    <glyph glyph-name="ocircumflex" unicode="&#xf4;" horiz-adv-x="1115" 
d="M914 1219q0 -33 -93 -33q-57 0 -100 37l-154 131l-139 -137q-38 -37 -108 -37q-88 0 -88 30q0 4 2 7l258 272q30 24 75 24q46 0 76 -24l271 -266v-4zM1055 547q0 -375 -240 -506q-121 -66 -258 -66q-248 0 -377 157q-120 145 -120 398q0 297 163 439q133 116 334 116
q242 0 374 -150q124 -142 124 -388zM871 537q0 166 -72 274q-84 127 -242 127q-162 0 -243 -129q-68 -107 -68 -279t68 -278q81 -127 243 -127q165 0 246 130q68 108 68 282z" />
    <glyph glyph-name="otilde" unicode="&#xf5;" horiz-adv-x="1115" 
d="M856 1372q5 -64 -28 -115q-69 -107 -166 -100q-33 3 -132.5 88t-113.5 86q-56 3 -152 -149q-20 26 -20 73q0 61 27 117q56 117 167 109q40 -3 138 -88q94 -82 108 -86q68 -7 156 161q12 -50 16 -96zM1055 547q0 -375 -240 -506q-121 -66 -258 -66q-248 0 -377 157
q-120 145 -120 398q0 297 163 439q133 116 334 116q242 0 374 -150q124 -142 124 -388zM871 537q0 166 -72 274q-84 127 -242 127q-162 0 -243 -129q-68 -107 -68 -279t68 -278q81 -127 243 -127q165 0 246 130q68 108 68 282z" />
    <glyph glyph-name="odieresis" unicode="&#xf6;" horiz-adv-x="1115" 
d="M832 1376q0 -46 -31.5 -79t-77.5 -33q-47 0 -78.5 32.5t-31.5 79.5q0 46 32 78.5t78 32.5q45 0 77 -33t32 -78zM481 1376q0 -46 -31 -79t-77 -33q-47 0 -79 32.5t-32 79.5q0 45 33 78t78 33t76.5 -33t31.5 -78zM1055 547q0 -375 -240 -506q-121 -66 -258 -66
q-248 0 -377 157q-120 145 -120 398q0 297 163 439q133 116 334 116q242 0 374 -150q124 -142 124 -388zM871 537q0 166 -72 274q-84 127 -242 127q-162 0 -243 -129q-68 -107 -68 -279t68 -278q81 -127 243 -127q165 0 246 130q68 108 68 282z" />
    <glyph glyph-name="divide" unicode="&#xf7;" horiz-adv-x="1000" 
d="M591 1075q0 -46 -31.5 -79t-77.5 -33q-47 0 -78.5 32.5t-31.5 79.5q0 46 32 78.5t78 32.5t77.5 -32.5t31.5 -78.5zM940 728q0 -88 -59 -88h-773q-48 0 -48 85q0 96 48 96h773q59 0 59 -93zM591 405q0 -46 -31.5 -79t-77.5 -33q-47 0 -78.5 32.5t-31.5 79.5q0 46 32 78.5
t78 32.5t77.5 -32.5t31.5 -78.5z" />
    <glyph glyph-name="oslash" unicode="&#xf8;" horiz-adv-x="1115" 
d="M1055 546q0 -372 -240 -505q-118 -65 -257 -65q-65 0 -121 11l-55 -153q-18 -37 -85 -37q-72 0 -72 30q1 5 2 7l73 203q-66 36 -117 98q-123 149 -123 396q0 295 164 437q137 118 334 118q60 0 113 -10l51 141q17 46 80 46q75 0 75 -39q0 -4 -1 -7l-68 -190
q67 -36 119 -96q128 -147 128 -385zM870 537q0 165 -71 274q-22 34 -48 57l-263 -737q33 -7 70 -7q163 0 244 131q68 109 68 282zM620 932q-29 5 -62 5q-162 0 -244 -128q-69 -107 -69 -278q0 -224 112 -332z" />
    <glyph glyph-name="ugrave" unicode="&#xf9;" horiz-adv-x="1241" 
d="M740 1280q0 -38 -40 -65q-36 -25 -76 -25q-39 0 -52 27l-92 184q-3 10 -4 16q0 31 47 60q39 24 78 24q32 0 41 -18l92 -185q6 -12 6 -18zM1049 524q0 -352 -207 -484q-104 -66 -226 -66q-226 0 -341 175q-98 148 -98 386l2 -1v363h-71q-48 0 -48 85q0 96 48 96h343
q60 0 60 -98q0 -83 -60 -83h-92v-380q0 -159 42 -234q73 -129 215 -129q143 0 215 132q38 70 38 240v371h-91q-48 0 -48 85q0 96 48 96h343q60 0 60 -98q0 -83 -60 -83h-72v-373z" />
    <glyph glyph-name="uacute" unicode="&#xfa;" horiz-adv-x="1241" 
d="M769 1415q0 -5 -4 -16l-94 -185q-13 -26 -49 -26q-42 0 -77 24q-40 26 -40 66q0 6 4 18l94 185q9 18 39 18q37 0 78 -24q49 -29 49 -60zM1049 524q0 -352 -207 -484q-104 -66 -226 -66q-226 0 -341 175q-98 148 -98 386l2 -1v363h-71q-48 0 -48 85q0 96 48 96h343
q60 0 60 -98q0 -83 -60 -83h-92v-380q0 -159 42 -234q73 -129 215 -129q143 0 215 132q38 70 38 240v371h-91q-48 0 -48 85q0 96 48 96h343q60 0 60 -98q0 -83 -60 -83h-72v-373z" />
    <glyph glyph-name="ucircumflex" unicode="&#xfb;" horiz-adv-x="1241" 
d="M962 1219q0 -33 -93 -33q-57 0 -100 37l-154 131l-139 -137q-38 -37 -108 -37q-88 0 -88 30q0 4 2 7l258 272q30 24 75 24t76 -24l271 -266v-4zM1049 524q0 -352 -207 -484q-104 -66 -226 -66q-226 0 -341 175q-98 148 -98 386l2 -1v363h-71q-48 0 -48 85q0 96 48 96h343
q60 0 60 -98q0 -83 -60 -83h-92v-380q0 -159 42 -234q73 -129 215 -129q143 0 215 132q38 70 38 240v371h-91q-48 0 -48 85q0 96 48 96h343q60 0 60 -98q0 -83 -60 -83h-72v-373z" />
    <glyph glyph-name="udieresis" unicode="&#xfc;" horiz-adv-x="1241" 
d="M880 1376q0 -46 -31.5 -79t-77.5 -33q-47 0 -79 32.5t-32 79.5q0 45 33 78t78 33t77 -33t32 -78zM529 1376q0 -47 -30.5 -79.5t-77.5 -32.5t-79 32.5t-32 79.5q0 45 33 78t78 33q46 0 77 -32.5t31 -78.5zM1049 524q0 -352 -207 -484q-104 -66 -226 -66q-226 0 -341 175
q-98 148 -98 386l2 -1v363h-71q-48 0 -48 85q0 96 48 96h343q60 0 60 -98q0 -83 -60 -83h-92v-380q0 -159 42 -234q73 -129 215 -129q143 0 215 132q38 70 38 240v371h-91q-48 0 -48 85q0 96 48 96h343q60 0 60 -98q0 -83 -60 -83h-72v-373z" />
    <glyph glyph-name="yacute" unicode="&#xfd;" horiz-adv-x="1302" 
d="M780 1415q0 -5 -4 -16l-95 -185q-13 -26 -49 -26q-41 0 -76 24q-40 27 -40 66q0 6 4 18l94 185q9 18 39 18q37 0 78 -24q49 -29 49 -60zM1110 144q0 -198 -30 -294q-88 -281 -470 -281q-307 0 -401 169q-8 10 -8 22q0 32 41 55q35 20 70 20q34 0 54 -23q35 -40 40 -44
q66 -50 203 -50q255 0 305 190q14 53 13 231q-118 -139 -294 -139q-219 0 -344 156q-115 144 -115 369v363h-66q-48 0 -48 85q0 96 48 96h303q60 0 60 -98q0 -83 -60 -83h-55v-344q2 3 3 6q0 -169 60 -272q74 -129 231 -129q107 0 208 96q70 67 80 168q6 60 6 371v228
q0 56 75 56h163q60 0 60 -91q0 -77 -60 -77h-72v-756z" />
    <glyph glyph-name="thorn" unicode="&#xfe;" horiz-adv-x="1150" 
d="M906 538q0 160 -63 271q-78 137 -227 137q-145 0 -230 -139q-32 -52 -32 -276q0 -190 45 -266q79 -133 225 -133q149 0 223 136q59 108 59 270zM169 1265h-57q-47 0 -47 74q0 83 47 83h115q11 1 23 1q80 0 86 -43v-443q107 157 295 157q223 0 349 -180q110 -158 110 -391
q0 -229 -108 -375q-120 -164 -342 -164q-177 0 -291 143v-370h77q59 0 59 -85q0 -72 -59 -72h-319q-47 0 -47 74q0 83 47 83h62v1508z" />
    <glyph glyph-name="ydieresis" unicode="&#xff;" horiz-adv-x="1302" 
d="M907 1376q0 -46 -31.5 -79t-77.5 -33q-47 0 -78.5 32.5t-31.5 79.5q0 46 32 78.5t78 32.5q45 0 77 -33t32 -78zM557 1376q0 -46 -31.5 -79t-77.5 -33q-47 0 -79 32.5t-32 79.5q0 45 33 78t78 33t77 -33t32 -78zM1110 144q0 -198 -30 -294q-88 -281 -470 -281
q-307 0 -401 169q-8 10 -8 22q0 32 41 55q35 20 70 20q34 0 54 -23q35 -40 40 -44q66 -50 203 -50q255 0 305 190q14 53 13 231q-118 -139 -294 -139q-219 0 -344 156q-115 144 -115 369v363h-66q-48 0 -48 85q0 96 48 96h303q60 0 60 -98q0 -83 -60 -83h-55v-344q2 3 3 6
q0 -169 60 -272q74 -129 231 -129q107 0 208 96q70 67 80 168q6 60 6 371v228q0 56 75 56h163q60 0 60 -91q0 -77 -60 -77h-72v-756z" />
    <glyph glyph-name="macron" unicode="&#xaf;" horiz-adv-x="779" 
d="M719 1297q0 -88 -58 -88h-553q-48 0 -48 85q0 96 48 96h553q58 0 58 -93z" />
    <glyph glyph-name="macron" unicode="&#x2c9;" horiz-adv-x="779" 
d="M719 1297q0 -88 -58 -88h-553q-48 0 -48 85q0 96 48 96h553q58 0 58 -93z" />
    <glyph glyph-name="minus" unicode="&#xad;" horiz-adv-x="1000" 
d="M940 728q0 -88 -59 -88h-773q-48 0 -48 85q0 96 48 96h773q59 0 59 -93z" />
    <glyph glyph-name="minus" unicode="&#x2212;" horiz-adv-x="1000" 
d="M940 728q0 -88 -59 -88h-773q-48 0 -48 85q0 96 48 96h773q59 0 59 -93z" />
    <glyph glyph-name="periodcentered" unicode="&#xb7;" horiz-adv-x="339" 
d="M279 712q0 -46 -31.5 -79t-77.5 -33q-48 0 -79 32t-31 80q0 47 31.5 79t78.5 32q46 0 77.5 -32.5t31.5 -78.5z" />
    <glyph glyph-name="periodcentered" unicode="&#x2219;" horiz-adv-x="339" 
d="M279 712q0 -46 -31.5 -79t-77.5 -33q-48 0 -79 32t-31 80q0 47 31.5 79t78.5 32q46 0 77.5 -32.5t31.5 -78.5z" />
  </font>
</defs>
</svg>
